<svg xmlns="http://www.w3.org/2000/svg" id="Mobile_apps-pana" data-name="Mobile apps-pana" width="620.47" height="559.951" viewBox="0 0 620.47 559.951"><g id="background-complete--inject-129" transform="translate(65.348 0)"><path id="Path_8375" data-name="Path 8375" d="M467.783,145.3l-29.422-.122a7.31,7.31,0,0,0-7.188,7.431v5.334A7.31,7.31,0,0,1,424,165.389l-57.37-.274a7.31,7.31,0,0,1-7.112-7.492v-5.349a7.325,7.325,0,0,0-7.112-7.507H342.056L316.3,144.66a23.161,23.161,0,0,0-23.267,23.054L291.51,539.15A23.145,23.145,0,0,0,314.564,562.4l151.486.7a23.16,23.16,0,0,0,23.267-23.054l1.52-371.435A23.145,23.145,0,0,0,467.783,145.3Z" transform="translate(25.808 -16.168)" fill="#f5f5f5"></path><path id="Path_8376" data-name="Path 8376" d="M433.313,399.558l-112.6-.547c-1.155,0-2.1-1.277-2.1-2.842l.122-29.467c0-1.52.957-2.827,2.128-2.812l112.642.517c1.17,0,2.112,1.277,2.112,2.827l-.137,29.483C435.426,398.3,434.468,399.558,433.313,399.558Z" transform="translate(39.898 97.771)" fill="#e0e0e0"></path><path id="Path_8377" data-name="Path 8377" d="M340.46,379.946l.35-.714a4.134,4.134,0,0,0,2.781,1.079c1.52,0,2.264-.684,2.28-1.52,0-2.432-5.2-.957-5.182-4.225,0-1.307.973-2.416,3.115-2.416a4.742,4.742,0,0,1,2.614.79l-.3.745a4.225,4.225,0,0,0-2.31-.729c-1.52,0-2.234.7-2.234,1.52,0,2.432,5.182.988,5.167,4.21,0,1.292-.988,2.4-3.146,2.386a4.408,4.408,0,0,1-3.131-1.125Z" transform="translate(51.249 102.064)" fill="#fafafa"></path><path id="Path_8378" data-name="Path 8378" d="M345.89,372.2h.9v8.83h-.9Z" transform="translate(54.071 102.09)" fill="#fafafa"></path><path id="Path_8379" data-name="Path 8379" d="M355.331,372.24v8.83h-.745l-5.395-7.188v7.158h-.881v-8.83h.73l5.41,7.188V372.24Z" transform="translate(55.328 102.095)" fill="#fafafa"></path><path id="Path_8380" data-name="Path 8380" d="M360.673,376.7h.866v3.374A4.342,4.342,0,1,1,358.5,372.2a4.042,4.042,0,0,1,3.131,1.292l-.562.593a3.313,3.313,0,0,0-2.538-1.049,3.663,3.663,0,0,0,0,7.31,3.6,3.6,0,0,0,2.219-.669Z" transform="translate(58.664 102.089)" fill="#fafafa"></path><path id="Path_8381" data-name="Path 8381" d="M362.9,377.331v-5.046h.9V377.3c0,2.1.927,3.039,2.568,3.039s2.584-.957,2.6-3.039v-5.03h.881v5.061c0,2.523-1.322,3.83-3.48,3.83S362.885,379.869,362.9,377.331Z" transform="translate(62.911 102.127)" fill="#fafafa"></path><path id="Path_8382" data-name="Path 8382" d="M375.856,375.344c0,1.869-1.322,3.039-3.465,3.039h-2.264v2.8h-.9v-8.83h3.161C374.564,372.3,375.856,373.445,375.856,375.344Zm-.9,0c0-1.413-.881-2.219-2.568-2.219h-2.249v4.407h2.249c1.672,0,2.568-.805,2.568-2.2Z" transform="translate(66.201 102.168)" fill="#fafafa"></path><rect id="Rectangle_1084" data-name="Rectangle 1084" width="39.087" height="7.173" transform="translate(343.947 238.081) rotate(0.26)" fill="#e0e0e0"></rect><path id="Path_8383" data-name="Path 8383" d="M462.912,255a3.649,3.649,0,0,0,.881-.213,2.355,2.355,0,0,0,1.52-2.036V232.586a2.949,2.949,0,0,0-.426-1.991,2.219,2.219,0,0,0-1.793-.927H438.764L311.639,229.2a2.067,2.067,0,0,0-1.672.851,3.04,3.04,0,0,0-.395,1.975V250.26a13.829,13.829,0,0,0,0,2.143,2.1,2.1,0,0,0,1.185,1.368,2.356,2.356,0,0,0,.942.152h7.735l33.753.182,57.142.35,38.525.3,10.471.122h-49l-57.142-.167-33.753-.137h-7.811a3.344,3.344,0,0,1-1.246-.228,2.872,2.872,0,0,1-1.641-1.884,4.333,4.333,0,0,1-.091-1.216V231.887a11.557,11.557,0,0,1,0-1.216,2.826,2.826,0,0,1,.5-1.231,2.857,2.857,0,0,1,2.325-1.17l127.11.7,21.945.167h2.386a2.69,2.69,0,0,1,2.128,1.109,3.313,3.313,0,0,1,.486,2.234c0,.729,0,1.429,0,2.128,0,2.766,0,5.289-.076,7.6,0,4.559-.091,8.055-.122,10.486a2.477,2.477,0,0,1-1.611,2.1,1.762,1.762,0,0,1-.806.213Z" transform="translate(34.706 27.286)" fill="#e0e0e0"></path><rect id="Rectangle_1085" data-name="Rectangle 1085" width="71.488" height="6.702" transform="translate(354.429 265.635) rotate(0.26)" fill="#e0e0e0"></rect><rect id="Rectangle_1086" data-name="Rectangle 1086" width="39.087" height="7.173" transform="translate(343.665 303.518) rotate(0.26)" fill="#e0e0e0"></rect><path id="Path_8384" data-name="Path 8384" d="M462.008,298.02a7.4,7.4,0,0,0,.9-.167,3.191,3.191,0,0,0,1.93-1.717,4.089,4.089,0,0,0,.258-1.93v-18.1a3.283,3.283,0,0,0-.456-2.006A3.039,3.039,0,0,0,463,272.823a9.378,9.378,0,0,0-2.295-.137H438.817l-126.669-.456a2.766,2.766,0,0,0-2.766,2.432q0,2.28,0,4.559V292.9a10.412,10.412,0,0,0,.091,2.112,2.857,2.857,0,0,0,1.109,1.52,3.039,3.039,0,0,0,1.9.486h6.6l33.631.182,56.944.35,38.4.3,10.425.122h-10.44l-38.449.167-56.944-.182-33.631-.137H312.33a3.738,3.738,0,0,1-2.325-.623,3.541,3.541,0,0,1-1.413-1.991,10.352,10.352,0,0,1-.137-2.325V274.556a3.587,3.587,0,0,1,3.556-3.146l126.669.714,21.884.152a9.349,9.349,0,0,1,2.416.167,3.359,3.359,0,0,1,1.869,1.52,3.663,3.663,0,0,1,.486,2.219v18.206a4.163,4.163,0,0,1-.319,1.991,3.237,3.237,0,0,1-2.036,1.733A2.4,2.4,0,0,1,462.008,298.02Z" transform="translate(34.607 49.707)" fill="#e0e0e0"></path><rect id="Rectangle_1087" data-name="Rectangle 1087" width="39.087" height="7.173" transform="translate(343.386 371.782) rotate(0.26)" fill="#e0e0e0"></rect><path id="Path_8385" data-name="Path 8385" d="M461.828,342.977a3.62,3.62,0,0,0,.9-.167,3.192,3.192,0,0,0,1.93-1.717,4.058,4.058,0,0,0,.258-1.93v-18.1a3.3,3.3,0,0,0-.456-2.006,3.04,3.04,0,0,0-1.641-1.277,9.408,9.408,0,0,0-2.295-.122H438.637l-126.669-.471a2.781,2.781,0,0,0-2.766,2.447v18.237a10.637,10.637,0,0,0,.091,2.128,2.873,2.873,0,0,0,1.109,1.52,3.04,3.04,0,0,0,1.9.486h6.6l33.631.182,56.944.35,38.388.3,10.44.122h-49l-56.944-.182-33.631-.137h-6.611a3.921,3.921,0,0,1-2.325-.623,3.587,3.587,0,0,1-1.413-2.006,10.3,10.3,0,0,1-.137-2.325V319.376a3.571,3.571,0,0,1,3.556-3.146l126.669.7,21.884.152a10.061,10.061,0,0,1,2.538.319,3.5,3.5,0,0,1,1.869,1.52,3.678,3.678,0,0,1,.486,2.234V339.36a4.164,4.164,0,0,1-.319,1.991,3.146,3.146,0,0,1-2.036,1.732,2.4,2.4,0,0,1-1.064-.106Z" transform="translate(34.498 73.001)" fill="#e0e0e0"></path><rect id="Rectangle_1088" data-name="Rectangle 1088" width="71.488" height="6.702" transform="translate(354.163 331.103) rotate(0.26)" fill="#e0e0e0"></rect><path id="Path_8386" data-name="Path 8386" d="M322.139,326.814a3.131,3.131,0,1,1-3.039-3.344A3.222,3.222,0,0,1,322.139,326.814Z" transform="translate(38.476 76.764)" fill="#e0e0e0"></path><path id="Path_8387" data-name="Path 8387" d="M328.519,326.843A3.131,3.131,0,1,1,325.4,323.5a3.237,3.237,0,0,1,3.115,3.343Z" transform="translate(41.792 76.78)" fill="#e0e0e0"></path><path id="Path_8388" data-name="Path 8388" d="M334.889,326.873a3.131,3.131,0,1,1-3.115-3.343,3.222,3.222,0,0,1,3.115,3.343Z" transform="translate(45.103 76.795)" fill="#e0e0e0"></path><path id="Path_8389" data-name="Path 8389" d="M341.259,326.9a3.131,3.131,0,1,1-3.039-3.343,3.222,3.222,0,0,1,3.039,3.343Z" transform="translate(48.413 76.81)" fill="#e0e0e0"></path><path id="Path_8390" data-name="Path 8390" d="M347.639,326.933a3.131,3.131,0,1,1-3.115-3.343A3.237,3.237,0,0,1,347.639,326.933Z" transform="translate(51.729 76.826)" fill="#e0e0e0"></path><path id="Path_8391" data-name="Path 8391" d="M354.008,326.969a3.131,3.131,0,1,1-3.115-3.359,3.237,3.237,0,0,1,3.115,3.359Z" transform="translate(55.04 76.837)" fill="#e0e0e0"></path><path id="Path_8392" data-name="Path 8392" d="M360.378,327a3.131,3.131,0,1,1-3.115-3.359A3.222,3.222,0,0,1,360.378,327Z" transform="translate(58.351 76.852)" fill="#e0e0e0"></path><path id="Path_8393" data-name="Path 8393" d="M366.749,327.025a3.131,3.131,0,1,1-1.495-2.893A3.13,3.13,0,0,1,366.749,327.025Z" transform="translate(61.661 76.871)" fill="#e0e0e0"></path><path id="Path_8394" data-name="Path 8394" d="M373.138,327.059a3.131,3.131,0,1,1-3.115-3.359,3.237,3.237,0,0,1,3.115,3.359Z" transform="translate(64.982 76.884)" fill="#e0e0e0"></path><path id="Path_8395" data-name="Path 8395" d="M366.094,185.443a5.9,5.9,0,0,0,3.51-5.456,5.547,5.547,0,1,0-11.064,0,5.912,5.912,0,0,0,3.526,5.5c-8.51,1.277-8.115,10.532-8.115,10.532l20.106.091S374.513,186.72,366.094,185.443Z" transform="translate(58.259 -0.903)" fill="#e0e0e0"></path><rect id="Rectangle_1089" data-name="Rectangle 1089" width="71.716" height="8.571" transform="translate(385.331 200.838) rotate(0.26)" fill="#e0e0e0"></rect><path id="Path_8396" data-name="Path 8396" d="M208.947,98.778a55.152,55.152,0,0,1,10.486,10.289l13.389-2.447,8.845,20.714-11.033,7.979a55.273,55.273,0,0,1,.167,14.7l11.2,7.735-8.4,20.911L220.163,176.5a55.606,55.606,0,0,1-10.288,10.486l2.447,13.389-20.714,8.845-7.979-11.033a55.272,55.272,0,0,1-14.7.167l-7.735,11.2-20.911-8.4,2.158-13.434a55.151,55.151,0,0,1-10.486-10.289l-13.4,2.447-8.83-20.714,11.033-7.979a55.272,55.272,0,0,1-.167-14.7l-11.2-7.735,8.4-20.911,13.434,2.158a55.151,55.151,0,0,1,10.289-10.486L139.07,86.118l20.714-8.83,7.979,11.033a55.272,55.272,0,0,1,14.7-.167L190.194,77l20.9,8.4-2.143,13.434Zm-23.3,22.416a24.179,24.179,0,1,0,13.419,31.443,24.179,24.179,0,0,0-13.419-31.443Z" transform="translate(-68.844 -51.332)" fill="#e0e0e0" fill-rule="evenodd"></path><path id="Path_8397" data-name="Path 8397" d="M262.919,137.7l-30.075-.137a7.462,7.462,0,0,0-7.34,7.6V150.6a7.462,7.462,0,0,1-7.34,7.6l-58.631-.274a7.477,7.477,0,0,1-7.279-7.6v-5.441a7.462,7.462,0,0,0-7.264-7.6H134.35L108.089,137a23.632,23.632,0,0,0-23.768,23.51L82.71,539.073a23.632,23.632,0,0,0,23.556,23.692l154.829.714a23.632,23.632,0,0,0,23.784-23.495l1.52-378.578a23.632,23.632,0,0,0-23.48-23.708Z" transform="translate(-82.71 -20.149)" fill="#fafafa"></path><rect id="Rectangle_1090" data-name="Rectangle 1090" width="153.203" height="10.243" transform="translate(24.483 375.143)" fill="#e0e0e0"></rect><path id="Path_8398" data-name="Path 8398" d="M245.951,333.754c0,.365-32.7.669-73.023.669s-73.038-.3-73.038-.669,32.689-.684,73.038-.684S245.951,333.374,245.951,333.754Z" transform="translate(-73.781 81.753)" fill="#e0e0e0"></path><path id="Path_8399" data-name="Path 8399" d="M245.951,173.789c0,.365-32.7.669-73.023.669s-73.038-.3-73.038-.669,32.689-.669,73.038-.669S245.951,173.409,245.951,173.789Z" transform="translate(-73.781 -1.376)" fill="#e0e0e0"></path><path id="Path_8400" data-name="Path 8400" d="M245.951,346.019c0,.38-32.7.669-73.023.669s-73.038-.289-73.038-.669,32.689-.669,73.038-.669S245.951,345.654,245.951,346.019Z" transform="translate(-73.781 88.136)" fill="#e0e0e0"></path><path id="Path_8401" data-name="Path 8401" d="M245.951,358.3c0,.365-32.7.669-73.023.669s-73.038-.3-73.038-.669,32.689-.669,73.038-.669S245.951,357.919,245.951,358.3Z" transform="translate(-73.781 94.518)" fill="#e0e0e0"></path><path id="Path_8402" data-name="Path 8402" d="M245.951,370.569c0,.38-32.7.669-73.023.669s-73.038-.289-73.038-.669,32.689-.669,73.038-.669S245.951,370.2,245.951,370.569Z" transform="translate(-73.781 100.895)" fill="#e0e0e0"></path><path id="Path_8403" data-name="Path 8403" d="M245.951,382.849c0,.365-32.7.669-73.023.669s-73.038-.3-73.038-.669,32.689-.669,73.038-.669S245.951,382.469,245.951,382.849Z" transform="translate(-73.781 107.277)" fill="#e0e0e0"></path><path id="Path_8404" data-name="Path 8404" d="M247.351,396.769c0,.365-32.689.669-73.023.669s-73.038-.3-73.038-.669,32.689-.669,73.038-.669S247.351,396.389,247.351,396.769Z" transform="translate(-73.053 114.511)" fill="#e0e0e0"></path><rect id="Rectangle_1091" data-name="Rectangle 1091" width="153.583" height="148.598" transform="translate(26.155 193.689)" fill="#ebebeb"></rect><path id="Path_8405" data-name="Path 8405" d="M107.75,303.122l42.491-76.472L185,275.524l21.109-25.957,31.413,53.555Z" transform="translate(-69.696 26.445)" fill="#e0e0e0"></path><path id="Path_8406" data-name="Path 8406" d="M175.887,220.638a11.064,11.064,0,1,1-11.064-11.048,11.064,11.064,0,0,1,11.064,11.048Z" transform="translate(-45.784 17.578)" fill="#e0e0e0"></path><path id="Path_8407" data-name="Path 8407" d="M237.71,319.95v-9.027c0-5.9-.091-14.422-.167-25.243-.076-21.7-.182-52.613-.319-89.664l.623.638-129.754.091c-.182.167,1.368-1.368.714-.7v124.04l-.638-.638,93.828.319,26.474.167,7.021.076h2.447a3.352,3.352,0,0,1-.562,0h-8.647l-26.322.167-94.223.334h-.638V195.834c-.653.638.881-.927.745-.76l129.754.106h.638v.623c-.137,37.279-.243,68.388-.319,90.12,0,10.76-.137,19.24-.167,25.106,0,2.811,0,5.015-.076,6.565v1.656A2.187,2.187,0,0,1,237.71,319.95Z" transform="translate(-69.887 10.027)" fill="#e0e0e0"></path><rect id="Rectangle_1092" data-name="Rectangle 1092" width="179.555" height="46.899" rx="3.93" transform="translate(338.868)" fill="#e0e0e0"></rect><path id="Path_8408" data-name="Path 8408" d="M328.444,80.312a5.866,5.866,0,0,0,3.511-5.441,5.532,5.532,0,1,0-11.048,0,5.851,5.851,0,0,0,3.511,5.5,8.86,8.86,0,0,0-7.477,6.444,12.614,12.614,0,0,0,7.69,4.073h3.4a12.553,12.553,0,0,0,7.781-4.179,8.708,8.708,0,0,0-7.371-6.4Z" transform="translate(39.025 -55.464)" fill="#fafafa"></path><rect id="Rectangle_1093" data-name="Rectangle 1093" width="44.209" height="3.313" transform="translate(389.642 12.188)" fill="#fafafa"></rect><rect id="Rectangle_1094" data-name="Rectangle 1094" width="77.445" height="3.313" transform="translate(389.642 30.926)" fill="#fafafa"></rect><rect id="Rectangle_1095" data-name="Rectangle 1095" width="112.232" height="3.313" transform="translate(389.642 21.322)" fill="#fafafa"></rect></g><g id="Floor--inject-129" transform="translate(0 559.091)"><path id="Path_8409" data-name="Path 8409" d="M659.757,428.319c0,.213-138.842.4-310.023.4s-310.023-.182-310.023-.4S178.445,428,349.688,428,659.757,428.091,659.757,428.319Z" transform="translate(-39.71 -428)" fill="#263238"></path></g><g id="Plants--inject-129" transform="translate(524.491 368.517)"><path id="Path_8410" data-name="Path 8410" d="M422.791,437.3c-1.033-4.058,1.641-8.1,4.635-11.018s6.565-5.532,8.131-9.407c2.538-6.276-.775-14.437,3.526-19.65,2.538-3.04,7.051-4.088,9.3-7.371a16.718,16.718,0,0,0,2.052-5.881A59.756,59.756,0,0,1,465.48,356.21a51.883,51.883,0,0,1-6,26.808c-1.748,3.3-3.891,6.489-4.483,10.167-.973,5.973,2.34,12.158.836,18.009-1.717,6.717-9.285,11.155-9.681,18.07-.334,5.836,4.726,10.988,4.316,16.823A15.881,15.881,0,0,1,447.821,453c-4.559,7.492-11.231,12.629-21.276,12.4l-12.325.365Z" transform="translate(-369.559 -274.738)" fill="#2274e5"></path><g id="Group_1428" data-name="Group 1428" transform="translate(44.661 81.472)" opacity="0.3"><path id="Path_8411" data-name="Path 8411" d="M422.791,437.3c-1.033-4.058,1.641-8.1,4.635-11.018s6.565-5.532,8.131-9.407c2.538-6.276-.775-14.437,3.526-19.65,2.538-3.04,7.051-4.088,9.3-7.371a16.718,16.718,0,0,0,2.052-5.881A59.756,59.756,0,0,1,465.48,356.21a51.883,51.883,0,0,1-6,26.808c-1.748,3.3-3.891,6.489-4.483,10.167-.973,5.973,2.34,12.158.836,18.009-1.717,6.717-9.285,11.155-9.681,18.07-.334,5.836,4.726,10.988,4.316,16.823A15.881,15.881,0,0,1,447.821,453c-4.559,7.492-11.231,12.629-21.276,12.4l-12.325.365Z" transform="translate(-414.22 -356.21)"></path></g><path id="Path_8412" data-name="Path 8412" d="M427,480.685a10.134,10.134,0,0,1-3.389-.091,20.455,20.455,0,0,1-4-1.034,17.035,17.035,0,0,1-4.939-2.735,6.991,6.991,0,0,1-2.021-2.72,12.688,12.688,0,0,1-.547-3.693,36.454,36.454,0,0,0-.273-3.982,11.172,11.172,0,0,0-1.52-3.966c-1.444-2.553-3.845-4.985-4.559-8.465s-.2-7.1.4-10.79,1.17-7.72-.213-11.58-3.982-7.34-5.3-11.7-.669-9.118-.927-13.678a18.54,18.54,0,0,0-1.52-6.854c-.988-2.188-2.355-4.255-3.419-6.55-2.173-4.65-2.523-9.924-3.039-15.076-.289-2.6-.562-5.228-.851-7.872a38.371,38.371,0,0,0-1.322-7.887,68.979,68.979,0,0,0-2.9-7.6,25.662,25.662,0,0,1-1.4-3.982,37.208,37.208,0,0,1-.38-4.24,50.061,50.061,0,0,1,.38-8.526c.35-2.842.881-5.669,1.2-8.51V328.09l.5.258a18.936,18.936,0,0,1,6.6,5.638,29.846,29.846,0,0,1,4.043,7.6c2.021,5.3,2.735,10.851,3.738,16.139a44.072,44.072,0,0,0,5.03,14.756c1.337,2.2,2.948,4.21,4.377,6.353a17.553,17.553,0,0,1,3.039,7.036c.7,5.228-2.2,9.787-1.626,14.407a15.7,15.7,0,0,0,2.219,6.4c1.094,1.976,2.4,3.815,3.647,5.653a36.755,36.755,0,0,1,3.267,5.7,17.872,17.872,0,0,1,1.52,6.185c.289,4.149-.334,8.085,0,11.808a27.354,27.354,0,0,0,3.039,10.152c1.52,3.039,3.115,5.79,4.559,8.45.684,1.337,1.322,2.629,1.839,3.936a20.231,20.231,0,0,1,1.064,3.906,24.757,24.757,0,0,1,0,7.021,17.841,17.841,0,0,1-3.571,8.951,10.3,10.3,0,0,1-1,1.079,4.984,4.984,0,0,1-.821.684c-.456.334-.7.486-.7.486a16,16,0,0,0,2.4-2.34,17.993,17.993,0,0,0,3.389-8.89,24.314,24.314,0,0,0-.122-6.93,18.237,18.237,0,0,0-1.064-3.815,40.676,40.676,0,0,0-1.854-3.875c-1.383-2.644-3.039-5.395-4.559-8.45a27.751,27.751,0,0,1-3.039-10.319c-.3-3.8.289-7.751,0-11.808a17.2,17.2,0,0,0-1.444-5.972,36.466,36.466,0,0,0-3.237-5.593c-1.231-1.824-2.553-3.678-3.693-5.684a16.55,16.55,0,0,1-2.31-6.672c-.577-4.924,2.31-9.514,1.6-14.361a16.717,16.717,0,0,0-2.918-6.732c-1.4-2.1-3.039-4.118-4.407-6.368a44.589,44.589,0,0,1-5.091-15.2c-1.018-5.334-1.733-10.82-3.723-16.018a29.7,29.7,0,0,0-3.921-7.34,18.358,18.358,0,0,0-6.322-5.395l.562-.319v.5c-.334,2.887-.866,5.7-1.216,8.51a50.149,50.149,0,0,0-.365,8.389,39.519,39.519,0,0,0,.35,4.118,23.238,23.238,0,0,0,1.368,3.845,70.824,70.824,0,0,1,2.918,7.735,37.7,37.7,0,0,1,1.337,8.009c.289,2.66.562,5.289.836,7.887.562,5.182.912,10.349,3.039,14.848,1.033,2.234,2.4,4.3,3.4,6.565a18.844,18.844,0,0,1,1.611,7.1c.243,4.757-.4,9.392.866,13.677s3.921,7.705,5.258,11.687.805,8.191.2,11.869-1.231,7.31-.456,10.638,3.039,5.714,4.483,8.343a11.52,11.52,0,0,1,1.52,4.134,33.993,33.993,0,0,1,.228,4.042,12.657,12.657,0,0,0,.517,3.571,6.734,6.734,0,0,0,1.885,2.614,16.869,16.869,0,0,0,4.818,2.736,19.655,19.655,0,0,0,3.936,1.094,14.555,14.555,0,0,0,2.508.258Z" transform="translate(-384.833 -289.352)" fill="#263238"></path><path id="Path_8413" data-name="Path 8413" d="M387.541,332.86a1.516,1.516,0,0,1,.106.38c.076.289.167.653.274,1.109.243.973.517,2.432.973,4.27a63.573,63.573,0,0,0,2.523,6.444,88.538,88.538,0,0,1,2.872,8.754c.912,3.3,1.732,6.945,2.584,10.851a46.034,46.034,0,0,0,3.875,12.067c1,2.006,2.128,4.027,3.039,6.246a29.254,29.254,0,0,1,1.733,7.082,147.009,147.009,0,0,0,2.583,14.924c2.4,10.106,4.711,19.756,6.793,28.495s4.088,16.611,5.714,23.252,2.872,11.93,3.769,15.7c.425,1.808.76,3.237.988,4.27l.243,1.109a1.935,1.935,0,0,1,0,.4,1.386,1.386,0,0,1-.137-.365l-.319-1.109c-.274-1.018-.654-2.432-1.125-4.225L420,456.869l-5.882-23.206-6.869-28.51a140.6,140.6,0,0,1-2.568-14.984,28.285,28.285,0,0,0-1.672-6.9,58.8,58.8,0,0,0-3.039-6.216,46.034,46.034,0,0,1-3.86-12.234c-.821-3.936-1.6-7.6-2.477-10.851s-1.824-6.216-2.751-8.754-1.976-4.635-2.416-6.52-.638-3.328-.821-4.316c-.076-.456-.137-.836-.2-1.125A1.517,1.517,0,0,1,387.541,332.86Z" transform="translate(-383.472 -286.873)" fill="#263238"></path><path id="Path_8414" data-name="Path 8414" d="M414.018,493.963c-8.024-4.833-10.258-19.361-6.839-28.084s9.316-16.717,10.273-25.987c.745-7.143-1.52-14.513.152-21.5,2.295-9.437,11.565-16.717,11.519-26.413,0-5.441-3.039-10.638-2.827-16.033.334-6.672,5.486-11.945,8.693-17.8,4.924-8.982,5.3-19.62,7.021-29.711s5.623-20.866,14.589-25.835c1.277,8.571,3.5,14.453,2.72,26.063-.273,4.164-5.167,12.158-5.866,21.276-.426,5.471-.729,10.927-1.094,16.4s-.729,10.729-2.675,15.7c-1.52,3.8-3.845,7.249-4.954,11.185-2.082,7.386.547,15.425-1.14,22.917-1.429,6.352-5.866,11.793-6.793,18.237-1.322,9.118,4.559,18.495,1.444,27.112-1.52,4.286-5.061,7.705-6.079,12.158-.805,3.435,0,7.067-.7,10.516-1.17,5.547-11.793,9.8-17.446,9.437" transform="translate(-374.023 -302.6)" fill="#2274e5"></path><path id="Path_8415" data-name="Path 8415" d="M451.474,308.23a2.187,2.187,0,0,1,0,.471c0,.365-.122.836-.2,1.413-.182,1.231-.41,3.039-.836,5.395s-1.7,5.015-2.69,8.222-2.082,6.869-3.039,11-1.732,8.693-2.568,13.6a57.43,57.43,0,0,1-4.21,15.364c-1.155,2.568-2.432,5.137-3.4,7.872a35.429,35.429,0,0,0-1.732,8.693,177.491,177.491,0,0,1-2.477,18.8c-2.538,12.69-4.954,24.771-7.143,35.759s-4.407,20.82-6.155,29.133-3.207,14.939-4.225,19.62c-.5,2.264-.9,4.058-1.185,5.319-.137.578-.243,1.033-.319,1.383a1.988,1.988,0,0,1-.137.471,1.691,1.691,0,0,1,0-.486,10.054,10.054,0,0,1,.243-1.4c.243-1.277.593-3.039,1.033-5.349.957-4.7,2.31-11.413,3.982-19.68s3.739-18.237,5.988-29.163,4.559-23.069,7.082-35.744a179.329,179.329,0,0,0,2.477-18.662,35.163,35.163,0,0,1,1.808-8.86c.988-2.8,2.295-5.38,3.435-7.918a57.159,57.159,0,0,0,4.225-15.2c.866-4.893,1.687-9.468,2.675-13.677a111.85,111.85,0,0,1,3.146-11.018c1.034-3.222,2.31-5.851,2.8-8.146s.745-4.134.988-5.365c.106-.578.2-1.033.258-1.383A2.836,2.836,0,0,1,451.474,308.23Z" transform="translate(-371.161 -299.674)" fill="#263238"></path></g><g id="Gears--inject-129" transform="translate(242.654 9.255)"><path id="Path_8416" data-name="Path 8416" d="M256.472,78.719a31.67,31.67,0,0,1,5.988,5.851l7.6-1.383L275.1,95.011,268.8,99.57a31.613,31.613,0,0,1,.106,8.389l6.383,4.407L270.5,124.3l-7.6-1.231a31.307,31.307,0,0,1-5.866,5.988l1.4,7.6-11.854,5.106-4.559-6.292a31.5,31.5,0,0,1-8.374.091l-4.422,6.383-11.93-4.742,1.231-7.6a31.671,31.671,0,0,1-5.988-5.851l-7.6,1.383-5.045-11.823,6.307-4.559a31.609,31.609,0,0,1-.106-8.389l-6.383-4.407,4.787-11.93,7.6,1.231a31.306,31.306,0,0,1,5.866-5.988l-1.4-7.6,11.823-5.045,4.559,6.292a31.5,31.5,0,0,1,8.374-.091l4.422-6.383,11.93,4.787-1.231,7.6ZM243.174,91.5a13.784,13.784,0,1,0,7.6,17.948A13.784,13.784,0,0,0,243.174,91.5Z" transform="translate(-199.208 -66.075)" fill="none"></path><path id="Path_8417" data-name="Path 8417" d="M234.909,83.33a10.456,10.456,0,0,1,3.039,1.52,13.678,13.678,0,0,1,5.365,7.6,13.9,13.9,0,0,1,.289,6.474,14.133,14.133,0,0,1-3.3,6.687,13.374,13.374,0,0,1-3.115,2.614,13.539,13.539,0,0,1-3.906,1.672,14.057,14.057,0,0,1-15.562-6.292,13.327,13.327,0,0,1-1.656-3.906,13.676,13.676,0,0,1-.441-4.042,13.982,13.982,0,0,1,6.93-11.6,13.754,13.754,0,0,1,9.118-1.732,10.548,10.548,0,0,1,3.252,1,33.2,33.2,0,0,0-3.3-.7,13.8,13.8,0,0,0-8.754,1.915,13.48,13.48,0,0,0-6.489,11.124,12.159,12.159,0,0,0,.441,3.83,12.37,12.37,0,0,0,1.52,3.693,13.424,13.424,0,0,0,21.367,1.884,13.677,13.677,0,0,0,3.207-6.322,13.4,13.4,0,0,0-.2-6.2,13.784,13.784,0,0,0-4.985-7.447,33.042,33.042,0,0,0-2.827-1.778Z" transform="translate(-190.944 -57.906)" fill="#263238"></path><path id="Path_8418" data-name="Path 8418" d="M256.643,78.844a1.959,1.959,0,0,1,0-.486c0-.365.122-.836.2-1.52q.289-2.006.866-5.745l.076.137-11.869-4.666h.243l-4.392,6.413-.076.106h-.152a31.915,31.915,0,0,0-8.313.122h-.152l-.091-.122-4.559-6.276.334.091-11.869,5.076.182-.35c.441,2.371.927,4.969,1.413,7.6v.2l-.167.122a31.123,31.123,0,0,0-5.79,5.927l-.046.182h-.213l-7.6-1.216.38-.228-4.772,11.945-.137-.441,6.4,4.407.182.122v.228a31.6,31.6,0,0,0,.091,8.282v.228l-.2.137-6.292,4.559.137-.471,5.046,11.823-.426-.228,7.6-1.4h.228l.152.2a30.835,30.835,0,0,0,5.9,5.775h0a3.754,3.754,0,1,0,.152.38h0v.334l-.076.486-.152.957-.319,1.93c-.2,1.277-.41,2.553-.608,3.814l-.243-.426,11.93,4.8-.471.137,4.422-6.4.122-.182h.243a31.459,31.459,0,0,0,8.283-.091h.228l.137.182,4.559,6.307-.456-.137,11.823-5.03-.213.41c-.471-2.6-.927-5.152-1.383-7.6v-.213l.167-.122a31.4,31.4,0,0,0,5.805-5.912l.122-.167h.213l7.6,1.246-.35.2c1.687-4.194,3.283-8.146,4.818-11.915l.106.365-6.383-4.438-.137-.091v-.167a31.566,31.566,0,0,0,0-8.313v-.167l.122-.091,6.322-4.559V95.2c-1.945-4.559-3.587-8.51-5-11.854l.2.106-7.6,1.353h0a32.841,32.841,0,0,0-4.3-4.559l-1.185-1a2.8,2.8,0,0,1-.4-.334,2.49,2.49,0,0,1,.426.274c.289.213.7.517,1.231.973a29.952,29.952,0,0,1,4.422,4.559h-.122l7.6-1.52h.137v.137l5.091,11.808V95.3l-.152.106-6.276,4.559.091-.243a31.229,31.229,0,0,1,.122,8.45l-.122-.274,6.4,4.407.2.137-.076.228c-1.52,3.769-3.039,7.735-4.772,11.93l-.106.243h-.258l-7.675-1.216.334-.137a32.385,32.385,0,0,1-5.927,6.079l.137-.35c.456,2.508.927,5.045,1.4,7.6v.289l-.274.106-11.808,5.061-.289.122-.167-.243-4.559-6.292.365.152a31.671,31.671,0,0,1-8.48.091l.365-.152-4.422,6.383-.167.258-.289-.122-11.945-4.787-.289-.106v-.319c.213-1.277.41-2.538.623-3.83l.3-1.915.152-.973.076-.471v-.456h0c.319.76.091.213.167.38h0a32.006,32.006,0,0,1-6.079-5.927l.38.137-7.6,1.4H204.9l-.122-.289-5.03-11.839-.122-.274.243-.182,6.307-4.559-.152.365a31.793,31.793,0,0,1-.091-8.48l.152.365-6.459-4.422-.243-.167.122-.274c1.656-4.149,3.3-8.191,4.8-11.93l.106-.258h.274l7.6,1.246-.334.122a31.993,31.993,0,0,1,5.942-6.079l-.122.319c-.486-2.675-.957-5.289-1.383-7.6v-.243l.228-.091,11.839-5.015.213-.091.122.182,4.559,6.307-.258-.106a31.535,31.535,0,0,1,8.45,0l-.213.091,4.438-6.368.091-.137h.152l11.9,4.863H258v.091c-.426,2.462-.745,4.362-.973,5.684q-.182.927-.274,1.52a3.718,3.718,0,0,1-.106.486Z" transform="translate(-199.38 -66.2)" fill="#263238"></path><path id="Path_8419" data-name="Path 8419" d="M378.043,276.911a39.788,39.788,0,0,1,7.6,7.416l9.665-1.763,6.383,14.954-7.963,5.76a40.488,40.488,0,0,1,.122,10.638l8.07,5.593L395.838,334.6l-9.7-1.52a39.343,39.343,0,0,1-7.416,7.6l1.763,9.681-14.954,6.383-5.76-7.963a39.835,39.835,0,0,1-10.638.106l-5.593,8.085-15.091-6.079,1.52-9.7a39.42,39.42,0,0,1-7.6-7.416l-9.574,1.657-6.383-14.954,7.963-5.76a39.953,39.953,0,0,1-.106-10.638l-8.085-5.577,6.079-15.091,9.7,1.52a39.786,39.786,0,0,1,7.416-7.6l-1.763-9.665,14.954-6.383,5.76,7.963a39.952,39.952,0,0,1,10.638-.122l5.577-8.07,15.091,6.079-1.52,9.711Zm-16.808,16.17a17.431,17.431,0,1,0,9.544,9.338,17.446,17.446,0,0,0-9.544-9.338Z" transform="translate(-143.868 35.073)" fill="#fafafa" fill-rule="evenodd"></path><path id="Path_8420" data-name="Path 8420" d="M378.043,276.911a39.788,39.788,0,0,1,7.6,7.416l9.665-1.763,6.383,14.954-7.963,5.76a40.488,40.488,0,0,1,.122,10.638l8.07,5.593L395.838,334.6l-9.7-1.52a39.343,39.343,0,0,1-7.416,7.6l1.763,9.681-14.954,6.383-5.76-7.963a39.835,39.835,0,0,1-10.638.106l-5.593,8.085-15.091-6.079,1.52-9.7a39.42,39.42,0,0,1-7.6-7.416l-9.574,1.657-6.383-14.954,7.963-5.76a39.953,39.953,0,0,1-.106-10.638l-8.085-5.577,6.079-15.091,9.7,1.52a39.786,39.786,0,0,1,7.416-7.6l-1.763-9.665,14.954-6.383,5.76,7.963a39.952,39.952,0,0,1,10.638-.122l5.577-8.07,15.091,6.079-1.52,9.711Zm-16.808,16.17a17.431,17.431,0,1,0,9.544,9.338,17.446,17.446,0,0,0-9.544-9.338Z" transform="translate(-143.868 35.073)" fill="none"></path><path id="Path_8421" data-name="Path 8421" d="M350.721,282.6a13.829,13.829,0,0,1,3.83,1.976,17.325,17.325,0,0,1,6.732,9.513,17.568,17.568,0,0,1,.35,8.161,17.826,17.826,0,0,1-4.164,8.4,16.864,16.864,0,0,1-3.921,3.3,17.048,17.048,0,0,1-4.909,2.1,17.69,17.69,0,0,1-19.559-7.811,17.064,17.064,0,0,1-2.1-4.924,16.624,16.624,0,0,1-.547-5.076,17.592,17.592,0,0,1,20.152-16.823,13.587,13.587,0,0,1,4.134,1.231,39.649,39.649,0,0,0-4.179-.927,17.446,17.446,0,0,0-11.124,2.4,17.088,17.088,0,1,0,25.319,10.121,17.371,17.371,0,0,0-6.368-9.422,41.126,41.126,0,0,0-3.647-2.219Z" transform="translate(-133.355 45.554)" fill="#263238"></path><path id="Path_8422" data-name="Path 8422" d="M378.245,276.983a4.754,4.754,0,0,1,0-.623c0-.441.152-1.049.258-1.839.258-1.672.623-4.1,1.109-7.264v.137l-15.121-5.988.243-.076-5.441,8.1-.076.122h-.137a39.6,39.6,0,0,0-10.532.137h-.167l-.091-.122-5.775-7.948.334.091-14.939,6.413.182-.35c.547,3.039,1.155,6.292,1.778,9.665v.2l-.167.122a39.282,39.282,0,0,0-7.34,7.523l-.121.167h-.213l-9.7-1.52.38-.213c-1.9,4.742-3.936,9.848-6.079,15.091l-.122-.441,8.085,5.577.182.122v.228a39.97,39.97,0,0,0,.122,10.5v.228l-.182.137-7.963,5.76.137-.456,6.383,14.954-.441-.243,9.681-1.763h.228l.152.2a39.955,39.955,0,0,0,7.492,7.34h0l.2.152v.228q-.775,4.878-1.52,9.7l-.243-.426,15.091,6.079-.471.137c1.884-2.72,3.738-5.41,5.593-8.07l.122-.2h.243a39.667,39.667,0,0,0,10.486-.106h.243l.137.182,5.745,7.963-.456-.122,14.969-6.368-.213.4c-.608-3.283-1.185-6.5-1.763-9.665v-.213l.182-.137a39.422,39.422,0,0,0,7.355-7.492l.122-.167h.213l9.7,1.52-.365.213,6.079-15.091.106.365-8.085-5.592-.137-.106v-.167a39.224,39.224,0,0,0-.091-10.532v-.152l.137-.091,7.979-5.745-.076.289c-2.462-5.805-4.559-10.744-6.337-14.984l.2.106-9.681,1.717h0a41.838,41.838,0,0,0-5.456-5.805c-.669-.578-1.17-.988-1.52-1.277a6.083,6.083,0,0,1-.486-.41l.532.365a18.757,18.757,0,0,1,1.52,1.231,37.6,37.6,0,0,1,5.577,5.745h-.121l9.665-1.824h.137v.137c1.809,4.225,3.936,9.118,6.428,14.939l.076.167-.152.106-7.994,5.653.106-.258a40.271,40.271,0,0,1,.137,10.638l-.122-.274,8.1,5.577.2.137-.091.213c-1.915,4.772-3.921,9.787-6.079,15.106l-.106.243h-.258l-9.7-1.52.319-.122a39.934,39.934,0,0,1-7.477,7.6l.137-.35q.866,4.772,1.778,9.665v.289l-.258.122-14.954,6.383-.274.122-.182-.243c-1.9-2.614-3.815-5.258-5.76-7.963l.365.167a40.745,40.745,0,0,1-10.714.122l.38-.167c-1.854,2.66-3.708,5.365-5.593,8.085l-.167.258-.3-.122-15.091-6.079-.289-.106V350.8c.517-3.207,1.049-6.444,1.52-9.7l.152.38h0a40.137,40.137,0,0,1-7.6-7.477l.38.137-9.665,1.763h-.319l-.122-.289c-2.188-5.152-4.346-10.228-6.368-14.954l-.122-.289.243-.182,7.979-5.76-.167.365a40.792,40.792,0,0,1-.106-10.638l.152.365c-2.8-1.945-5.547-3.86-8.07-5.593l-.243-.167.106-.274c2.112-5.243,4.179-10.349,6.079-15.091l.106-.258h.274l9.711,1.52-.334.137a40.149,40.149,0,0,1,7.492-7.6l-.122.319c-.608-3.374-1.2-6.672-1.748-9.665v-.258l.228-.091,14.969-6.352.2-.091.137.182,5.745,7.979-.243-.106a40.45,40.45,0,0,1,10.638-.091l-.213.106,5.608-8.07.091-.137h.152L379.735,267h.091v.106c-.532,3.131-.942,5.532-1.216,7.188-.152.805-.258,1.413-.334,1.854Z" transform="translate(-144.071 35)" fill="#263238"></path></g><g id="Device--inject-129" transform="translate(198.537 63.281)"><path id="Path_8423" data-name="Path 8423" d="M375.619,597.878l-168.568-.106a36.716,36.716,0,0,1-36.7-36.686l.076-422.62a36.717,36.717,0,0,1,36.747-36.716l168.583.091A36.716,36.716,0,0,1,412.442,138.6V561.238a36.732,36.732,0,0,1-36.823,36.64Z" transform="translate(-170.35 -101.75)" fill="#263238"></path><path id="Path_8424" data-name="Path 8424" d="M371.753,111.662H339.064a8.115,8.115,0,0,0-7.933,8.283v5.973a8.115,8.115,0,0,1-7.948,8.3H259.476a8.146,8.146,0,0,1-7.933-8.313v-6.064a8.131,8.131,0,0,0-7.933-8.3H203.5a25.729,25.729,0,0,0-25.729,25.714L177.7,549.782A25.7,25.7,0,0,0,203.4,575.5l168.233.106a25.744,25.744,0,0,0,25.744-25.683l.076-412.513a25.729,25.729,0,0,0-25.7-25.744Z" transform="translate(-166.53 -96.662)" fill="#fff"></path><path id="Path_8425" data-name="Path 8425" d="M222.571,178.555a9.824,9.824,0,0,1,1.049.745l2.933,2.264.122.091-.106.122-5.912,6.915v-.319l13.677,13.677h-.486l5.836-6.4.182-.213.243.122a25.744,25.744,0,0,1,5.38,3.511,11.443,11.443,0,0,1,3.83,5.532,6.368,6.368,0,0,1,.167,1.778v.9l-.274.866a5.564,5.564,0,0,1-.76,1.641,7.4,7.4,0,0,1-1.018,1.52,10.805,10.805,0,0,1-6.079,3.739,11.656,11.656,0,0,1-7.128-.775,12.57,12.57,0,0,1-3.039-1.839,30.361,30.361,0,0,1-2.477-2.356l-9.21-9.118c-2.933-2.9-5.714-5.653-8.313-8.252l-1.915-1.9a12.068,12.068,0,0,1-1.763-1.976,6.458,6.458,0,0,1-1.14-4.863,9.5,9.5,0,0,1,5.076-6.626,10.212,10.212,0,0,1,6.292-.973,10.075,10.075,0,0,1,3.769,1.428,8.411,8.411,0,0,1,.851.623c.182.137.273.228.258.228a12.158,12.158,0,0,0-4.924-1.976,9.984,9.984,0,0,0-6.079,1.064,8.982,8.982,0,0,0-4.711,6.322,5.912,5.912,0,0,0,1.079,4.422,12.981,12.981,0,0,0,1.7,1.884l1.93,1.884,8.374,8.191,9.225,9.118a25.229,25.229,0,0,0,2.447,2.31A12.584,12.584,0,0,0,234.5,213.6a10.957,10.957,0,0,0,6.656.714,10.061,10.061,0,0,0,5.669-3.465,6.93,6.93,0,0,0,.957-1.368,5.182,5.182,0,0,0,.684-1.52l.243-.76v-.79a5.41,5.41,0,0,0-.137-1.52A10.638,10.638,0,0,0,245,199.755a24.453,24.453,0,0,0-5.182-3.419l.426-.091-5.881,6.383-.243.258-.243-.258-13.6-13.769-.167-.152.152-.167,6.079-6.808v.213l-2.842-2.371a7.724,7.724,0,0,1-.927-1.018Z" transform="translate(-151.676 -63.041)" fill="#263238"></path><path id="Path_8426" data-name="Path 8426" d="M257.067,232.868a12.491,12.491,0,0,0,2.462-.486A8.161,8.161,0,0,0,264.5,227.6a7.825,7.825,0,0,0,.517-2.371c0-.836,0-1.778,0-2.72,0-1.915,0-4-.091-6.216,0-4.468-.122-9.559-.182-15.2s-.122-11.763-.2-18.373v-5.03a13.784,13.784,0,0,0-.532-5.015,7.842,7.842,0,0,0-3.207-3.875,8.358,8.358,0,0,0-5.061-1.185l-48.312.441a7.781,7.781,0,0,0-7.751,7.6v12.325c0,8.07.122,15.866.182,23.3v10.851a19.758,19.758,0,0,0,.35,5.076,7.873,7.873,0,0,0,2.66,3.936,7.978,7.978,0,0,0,4.286,1.687h13.48l26.6-.091h9.118a2.9,2.9,0,0,1,.638,0,3.407,3.407,0,0,1-.638,0h-1.884l-7.219.137-26.61.35-8.814.106h-4.711a8.586,8.586,0,0,1-4.65-1.808,8.723,8.723,0,0,1-2.9-4.255,9.742,9.742,0,0,1-.365-2.644c0-.866,0-1.748,0-2.614q0-5.289-.106-10.866c-.076-7.416-.152-15.2-.228-23.3q0-6.079-.091-12.34a8.51,8.51,0,0,1,2.508-5.927,8.647,8.647,0,0,1,6.079-2.538l48.312-.365a9.118,9.118,0,0,1,5.456,1.307,8.526,8.526,0,0,1,3.465,4.24,8.07,8.07,0,0,1,.547,2.66c0,.9,0,1.732,0,2.6v5.03c0,6.6.076,12.75.106,18.373s0,10.638,0,15.2v8.982a8.978,8.978,0,0,1-.577,2.462,8.313,8.313,0,0,1-5.213,4.817A6.838,6.838,0,0,1,257.067,232.868Z" transform="translate(-155.58 -68.024)" fill="#263238"></path><rect id="Rectangle_1096" data-name="Rectangle 1096" width="65.591" height="65.591" rx="5.4" transform="translate(131.045 99.024) rotate(-0.47)" fill="#2274e5"></rect><path id="Path_8427" data-name="Path 8427" d="M308.219,195.81a37.689,37.689,0,0,0-.881-5.319,21.868,21.868,0,0,0-8.1-11.823,21.534,21.534,0,0,0-9.118-3.936,21.914,21.914,0,0,0-11.337,1.064,21.583,21.583,0,1,0,20.8,37.294,21.945,21.945,0,0,0,7.9-11.96,38.319,38.319,0,0,0,.79-5.319,1.249,1.249,0,0,1,0,.35v1.049a10.635,10.635,0,0,1-.122,1.7,13.477,13.477,0,0,1-.4,2.295,20.424,20.424,0,0,1-2.325,5.942A22.127,22.127,0,0,1,278.9,217a21.122,21.122,0,0,1-5.669-3.039,20.864,20.864,0,0,1-4.772-4.7,22.217,22.217,0,1,1,36.792-24.8,20.394,20.394,0,0,1,2.416,5.9,13.98,13.98,0,0,1,.441,2.295,13.2,13.2,0,0,1,.152,1.687v1.049A1.323,1.323,0,0,1,308.219,195.81Z" transform="translate(-121.673 -64.369)" fill="#fff"></path><path id="Path_8428" data-name="Path 8428" d="M308.434,187.347c0,.213-9.985.471-22.31.577s-22.294,0-22.294-.213,9.969-.471,22.294-.577S308.419,187.134,308.434,187.347Z" transform="translate(-121.766 -57.396)" fill="#fff"></path><path id="Path_8429" data-name="Path 8429" d="M283.9,217.839a3.739,3.739,0,0,1,.4-.9l1.246-2.508a36.25,36.25,0,0,0,1.884-4,46.346,46.346,0,0,0,2.036-5.486,34.816,34.816,0,0,0,1.717-14.969,25.837,25.837,0,0,0-2.705-8.48,20.927,20.927,0,0,0-6.246-7.143h.456c-.334.274-.714.608-1.064.942a32.492,32.492,0,0,0-9.787,16.124,22.248,22.248,0,0,0,2.067,15.2c.456,1,1.064,1.884,1.52,2.766a14.9,14.9,0,0,0,1.641,2.31l1.52,1.93c.5.562.973,1.064,1.413,1.52.836.942,1.52,1.52,2.036,2.052a4.907,4.907,0,0,1,.684.76,5.827,5.827,0,0,1-.805-.638c-.486-.441-1.261-1.049-2.143-1.96l-1.52-1.52-1.626-1.915c-.577-.684-1.109-1.52-1.717-2.31a15.4,15.4,0,0,1-1.641-2.8,22.6,22.6,0,0,1-2.28-15.532,32.78,32.78,0,0,1,9.954-16.55c.38-.35.745-.684,1.125-.988l.228-.182.228.152A21.793,21.793,0,0,1,289,181.184a26.155,26.155,0,0,1,2.751,8.754,34.437,34.437,0,0,1-1.915,15.2,42.467,42.467,0,0,1-2.158,5.5,35.231,35.231,0,0,1-2.006,3.966c-.577.988-1.033,1.809-1.383,2.432A6.337,6.337,0,0,1,283.9,217.839Z" transform="translate(-118.307 -64.424)" fill="#fff"></path><path id="Path_8430" data-name="Path 8430" d="M257.89,405.771a11.6,11.6,0,0,0,2.462-.471,8.253,8.253,0,0,0,4.969-4.787,7.826,7.826,0,0,0,.517-2.371v-2.735c0-1.915,0-3.982-.076-6.216,0-4.468-.122-9.544-.182-15.2s-.137-11.778-.2-18.373v-5.03a13.784,13.784,0,0,0-.532-5.015,7.872,7.872,0,0,0-3.207-3.891,8.358,8.358,0,0,0-5.061-1.17l-48.312.425a7.857,7.857,0,0,0-5.471,2.295,7.705,7.705,0,0,0-2.28,5.395c0,4.164,0,8.267.076,12.31,0,8.085.122,15.881.167,23.313q0,5.562.076,10.851a19.6,19.6,0,0,0,.35,5.061,7.842,7.842,0,0,0,6.945,5.623h13.48l26.6-.091h7.234l-7.219.137-26.61.35-8.814.091c-1.52,0-3.039.076-4.711,0a8.677,8.677,0,0,1-4.65-1.793,8.556,8.556,0,0,1-2.9-4.27,9.119,9.119,0,0,1-.4-2.386c0-.866,0-1.732,0-2.614q0-5.289-.106-10.851c0-7.431-.137-15.2-.213-23.3,0-4.058,0-8.161-.091-12.34a8.587,8.587,0,0,1,8.526-8.465l48.312-.365a9.026,9.026,0,0,1,5.456,1.292,8.5,8.5,0,0,1,3.465,4.255,7.993,7.993,0,0,1,.547,2.66v7.629c0,6.6,0,12.751.106,18.358s0,10.638,0,15.2v8.966a8.448,8.448,0,0,1-.562,2.462,8.3,8.3,0,0,1-5.213,4.833A6.565,6.565,0,0,1,257.89,405.771Z" transform="translate(-155.081 22.001)" fill="#263238"></path><path id="Path_8431" data-name="Path 8431" d="M207.923,351.913a3.889,3.889,0,0,1,.714,0h2.173l8.267-.167,29.391-.426h.35v.365c.091,8.754.182,18.571.289,28.875l-.41.41H226.92l-18.8.258h-.334V352.384a1.521,1.521,0,0,1,0-.486v2.082c0,1.413.076,3.389.137,5.866.076,5.076.2,12.264.334,20.957l-.319-.319,18.829-.213,10.638-.106h11.14l-.4.4c0-10.349-.137-20.182-.2-28.875l.365.365H208.562Z" transform="translate(-150.904 27.957)" fill="#263238"></path><path id="Path_8432" data-name="Path 8432" d="M228.622,370.277a2.02,2.02,0,0,1,.365-.41l1.094-1.079,4.088-3.906c3.556-3.374,8.5-8.024,14.331-13.526l.243.623-20.273.2-20.273.137.228-.623,14.559,13.282,4.149,3.845,1.109,1.049a2.521,2.521,0,0,1,.38.41s-.517-.4-1.52-1.231l-4.21-3.663-14.954-13.161-.7-.623h.927l20.288-.213,20.273-.137h.927l-.684.623L234.23,365.292l-4.164,3.723A17.078,17.078,0,0,1,228.622,370.277Z" transform="translate(-151.177 27.921)" fill="#263238"></path><path id="Path_8433" data-name="Path 8433" d="M222.564,360.42a73.166,73.166,0,0,1-6.975,8.115,72.207,72.207,0,0,1-7.6,7.6,73.182,73.182,0,0,1,6.975-8.115,70.436,70.436,0,0,1,7.6-7.6Z" transform="translate(-150.788 32.687)" fill="#263238"></path><path id="Path_8434" data-name="Path 8434" d="M239.741,375.816A149.947,149.947,0,0,1,225,360.36a69.767,69.767,0,0,1,7.675,7.447,69.9,69.9,0,0,1,7.067,8.009Z" transform="translate(-141.947 32.655)" fill="#263238"></path><rect id="Rectangle_1097" data-name="Rectangle 1097" width="65.591" height="65.591" rx="5.4" transform="translate(45.288 275.07)" fill="#2274e5"></rect><path id="Path_8435" data-name="Path 8435" d="M247.485,323.786a4.829,4.829,0,0,1,0-.578c0-.41,0-.927,0-1.52,0-1.444-.076-3.435-.137-5.957,0-5.152-.2-12.416-.334-21.17l.319.319-37.993.38.38-.4h0v15.288c0,4.909,0,9.589.091,13.966l-.365-.35h38.008a3.4,3.4,0,0,1-.669,0h-2.021l-7.735.152-27.568.41h-.35v-.35c0-4.392-.091-9.118-.152-13.981V294.713h0l.4-.41,37.993-.243h.334v29.118A1.7,1.7,0,0,1,247.485,323.786Z" transform="translate(-150.284 -1.802)" fill="#fafafa"></path><path id="Path_8436" data-name="Path 8436" d="M218.924,290.926a19.874,19.874,0,0,1,3.313-.228c2.112-.091,5.121-.152,8.693-.228h.2l.106.182,3.389,5.593.35.578H214.79l.258-.41c2.143-3.571,3.663-5.714,3.875-5.532s-.365.517-.957,1.52-1.52,2.6-2.432,4.286l-.243-.426c3.966-.091,9.407-.182,15.395-.228h3.6l-.334.593-3.328-5.638.3.182c-3.571,0-6.565,0-8.678-.076a19.762,19.762,0,0,1-3.328-.167Z" transform="translate(-147.254 -3.668)" fill="#fafafa"></path><path id="Path_8437" data-name="Path 8437" d="M232.8,309.855a11.926,11.926,0,0,0,.274-2.112,8.754,8.754,0,0,0-1.52-5.41,8.389,8.389,0,1,0-4.346,12.7,8.662,8.662,0,0,0,4.559-3.343c.775-1.125,1-1.869,1.079-1.839s0,.2-.137.547a6.486,6.486,0,0,1-.684,1.52,8.692,8.692,0,0,1-4.559,3.708,9.1,9.1,0,1,1-3.131-17.689,8.951,8.951,0,0,1,7.6,4.073,8.632,8.632,0,0,1,1.368,5.729,6.352,6.352,0,0,1-.35,1.52C232.987,309.688,232.835,309.855,232.8,309.855Z" transform="translate(-146.895 0.214)" fill="#fafafa"></path><rect id="Rectangle_1098" data-name="Rectangle 1098" width="65.591" height="65.591" rx="5.4" transform="translate(132.014 187.613) rotate(-0.47)" fill="#455a64"></rect><path id="Path_8438" data-name="Path 8438" d="M307.811,253.343a37.984,37.984,0,0,0-.866-5.273,21.747,21.747,0,0,0-8.039-11.747,21.367,21.367,0,0,0-20.319-2.842,19.758,19.758,0,0,0-5.4,2.963A20.348,20.348,0,0,0,268.708,241a21.276,21.276,0,0,0,.213,25.288,20.38,20.38,0,0,0,4.559,4.559,19.844,19.844,0,0,0,5.425,2.872,21.428,21.428,0,0,0,20.288-3.191,21.823,21.823,0,0,0,7.842-11.869,35.854,35.854,0,0,0,.775-5.289.913.913,0,0,1,0,.35v1.049a10.408,10.408,0,0,1-.122,1.687,13.566,13.566,0,0,1-.4,2.28,20.3,20.3,0,0,1-2.295,5.9,21.975,21.975,0,0,1-26.352,9.772,20.512,20.512,0,0,1-5.653-2.948,21.093,21.093,0,0,1-4.726-4.65,22.006,22.006,0,0,1-.213-26.215,21.124,21.124,0,0,1,4.65-4.726,20.7,20.7,0,0,1,5.593-3.039,21.93,21.93,0,0,1,20.911,3.039,21.61,21.61,0,0,1,5.593,6.246,20.7,20.7,0,0,1,2.416,5.866,15.2,15.2,0,0,1,.426,2.264,10.646,10.646,0,0,1,.137,1.687v1.049A.912.912,0,0,1,307.811,253.343Z" transform="translate(-121.766 -34.351)" fill="#fff"></path><path id="Path_8439" data-name="Path 8439" d="M275.073,239.11a9.906,9.906,0,0,1,1.231.608l3.632,1.915c3.115,1.656,7.6,4.042,12.811,6.93l.578.319-.562.334-8.571,5-8.769,5.061-.562.319v-.638c0-5.9,0-10.942.091-14.437v-4.042a7.689,7.689,0,0,1,0-1.368s0,.578.076,1.52.076,2.492.137,4.164c.106,3.541.243,8.419.319,14.118l-.562-.319,8.754-5.106,8.586-4.97v.654c-5-2.827-9.255-5.334-12.34-7.143L276.3,239.9A7.629,7.629,0,0,1,275.073,239.11Z" transform="translate(-116.034 -30.361)" fill="#fff"></path><path id="Path_8440" data-name="Path 8440" d="M234.47,268.2c0-.213,1.018-.4,2.295-.41s2.295.152,2.295.38-1.018.4-2.295.41S234.47,268.429,234.47,268.2Z" transform="translate(-137.025 -15.456)" fill="#e0e0e0"></path><path id="Path_8441" data-name="Path 8441" d="M228.42,268.251c0-.213,1.018-.4,2.295-.41s2.295.152,2.295.38-1.018.4-2.295.41S228.42,268.479,228.42,268.251Z" transform="translate(-140.17 -15.43)" fill="#e0e0e0"></path><path id="Path_8442" data-name="Path 8442" d="M222.37,268.3c0-.213,1.033-.4,2.295-.41s2.295.152,2.31.38-1.033.4-2.31.41S222.37,268.529,222.37,268.3Z" transform="translate(-143.314 -15.404)" fill="#e0e0e0"></path><path id="Path_8443" data-name="Path 8443" d="M216.32,268.351c0-.213,1.033-.4,2.295-.41s2.295.152,2.31.38-1.033.4-2.295.41S216.32,268.579,216.32,268.351Z" transform="translate(-146.458 -15.378)" fill="#e0e0e0"></path><path id="Path_8444" data-name="Path 8444" d="M210.27,268.4c0-.213,1.033-.4,2.295-.41s2.31.152,2.31.38-1.033.4-2.295.41S210.27,268.629,210.27,268.4Z" transform="translate(-149.603 -15.352)" fill="#e0e0e0"></path><path id="Path_8445" data-name="Path 8445" d="M204.231,268.348c0-.258,1-.243,2.28-.3s2.31.152,2.31.38-1.033.4-2.295.41S204.155,268.53,204.231,268.348Z" transform="translate(-152.743 -15.329)" fill="#e0e0e0"></path><path id="Path_8446" data-name="Path 8446" d="M199.941,264.44c.228,0,.638.866,1.292,1.884s1.307,1.778,1.155,1.945-1.094-.38-1.824-1.52S199.743,264.486,199.941,264.44Z" transform="translate(-155.018 -17.196)" fill="#e0e0e0"></path><path id="Path_8447" data-name="Path 8447" d="M199.78,258.41c.228,0,.41,1.033.41,2.295s-.152,2.31-.365,2.31-.41-1.033-.426-2.295S199.567,258.425,199.78,258.41Z" transform="translate(-155.252 -20.33)" fill="#e0e0e0"></path><path id="Path_8448" data-name="Path 8448" d="M199.73,252.37c.228,0,.41,1.018.41,2.295s-.152,2.295-.365,2.295-.41-1.033-.426-2.295S199.517,252.37,199.73,252.37Z" transform="translate(-155.278 -23.469)" fill="#e0e0e0"></path><path id="Path_8449" data-name="Path 8449" d="M199.68,246.32c.228,0,.41,1.018.41,2.295s-.152,2.295-.365,2.295-.41-1.018-.426-2.295S199.467,246.32,199.68,246.32Z" transform="translate(-155.304 -26.614)" fill="#e0e0e0"></path><path id="Path_8450" data-name="Path 8450" d="M199.63,240.27c.228,0,.41,1.018.41,2.295s-.152,2.295-.365,2.295-.41-1.018-.426-2.295S199.417,240.27,199.63,240.27Z" transform="translate(-155.33 -29.758)" fill="#e0e0e0"></path><path id="Path_8451" data-name="Path 8451" d="M199.58,234.22c.228,0,.41,1.018.41,2.295s-.152,2.295-.365,2.295-.41-1.018-.426-2.295S199.367,234.22,199.58,234.22Z" transform="translate(-155.356 -32.902)" fill="#e0e0e0"></path><path id="Path_8452" data-name="Path 8452" d="M200.333,228.243c.2.106-.106,1.064-.289,2.264s-.243,2.234-.486,2.219-.5-1-.3-2.356S200.135,228.137,200.333,228.243Z" transform="translate(-155.364 -36.013)" fill="#e0e0e0"></path><path id="Path_8453" data-name="Path 8453" d="M206.261,225.239c0,.213-1,.365-2.158.714s-2.067.76-2.188.578.669-.957,1.96-1.337S206.276,225.011,206.261,225.239Z" transform="translate(-153.952 -37.705)" fill="#e0e0e0"></path><path id="Path_8454" data-name="Path 8454" d="M212.395,225.23c0,.213-1.033.4-2.295.41s-2.31-.167-2.31-.38,1.033-.41,2.295-.41A4.454,4.454,0,0,1,212.395,225.23Z" transform="translate(-150.892 -37.772)" fill="#e0e0e0"></path><path id="Path_8455" data-name="Path 8455" d="M218.445,225.18c0,.213-1.033.4-2.295.41s-2.31-.167-2.31-.38,1.033-.41,2.295-.41S218.445,224.952,218.445,225.18Z" transform="translate(-147.747 -37.798)" fill="#e0e0e0"></path><path id="Path_8456" data-name="Path 8456" d="M224.495,225.13c0,.213-1.033.4-2.295.41s-2.31-.167-2.31-.38,1.033-.41,2.295-.41S224.48,224.9,224.495,225.13Z" transform="translate(-144.603 -37.824)" fill="#e0e0e0"></path><path id="Path_8457" data-name="Path 8457" d="M230.57,225.13c0,.213-1.018.4-2.295.41s-2.295-.167-2.295-.38,1.018-.41,2.295-.41S230.57,224.826,230.57,225.13Z" transform="translate(-141.438 -37.824)" fill="#e0e0e0"></path><path id="Path_8458" data-name="Path 8458" d="M236.57,225.03c0,.213-1.018.4-2.295.41s-2.295-.167-2.295-.38,1.018-.41,2.295-.41S236.57,224.8,236.57,225.03Z" transform="translate(-138.32 -37.876)" fill="#e0e0e0"></path><path id="Path_8459" data-name="Path 8459" d="M242.144,226.937c-.152.152-.988-.4-2.082-.912s-2.052-.805-2.021-1.033,1.14-.258,2.356.319S242.3,226.785,242.144,226.937Z" transform="translate(-135.17 -37.778)" fill="#e0e0e0"></path><path id="Path_8460" data-name="Path 8460" d="M242.77,233.291c-.228,0-.41-1.018-.426-2.295a8.649,8.649,0,0,1,0-2.264c.152-.076.729.912.729,2.264S242.983,233.291,242.77,233.291Z" transform="translate(-132.97 -35.757)" fill="#e0e0e0"></path><path id="Path_8461" data-name="Path 8461" d="M242.8,239.35c-.228,0-.41-1.018-.426-2.295s.167-2.295.38-2.295.41,1.018.41,2.295S243.009,239.35,242.8,239.35Z" transform="translate(-132.92 -32.622)" fill="#e0e0e0"></path><path id="Path_8462" data-name="Path 8462" d="M242.846,245.4c-.228,0-.41-1.018-.426-2.295s.167-2.295.38-2.295.41,1.018.41,2.295S243.059,245.4,242.846,245.4Z" transform="translate(-132.894 -29.477)" fill="#e0e0e0"></path><path id="Path_8463" data-name="Path 8463" d="M242.9,251.45c-.228,0-.41-1.018-.426-2.295s.167-2.295.38-2.295.41,1.018.41,2.295S243.109,251.45,242.9,251.45Z" transform="translate(-132.868 -26.333)" fill="#e0e0e0"></path><path id="Path_8464" data-name="Path 8464" d="M242.946,257.5c-.228,0-.41-1.018-.426-2.295s.167-2.295.38-2.295.41,1.018.41,2.295S243.159,257.5,242.946,257.5Z" transform="translate(-132.842 -23.189)" fill="#e0e0e0"></path><path id="Path_8465" data-name="Path 8465" d="M243,263.575c-.228,0-.41-1.033-.426-2.295s.167-2.295.38-2.31.41,1.033.41,2.295S243.224,263.575,243,263.575Z" transform="translate(-132.816 -20.039)" fill="#e0e0e0"></path><path id="Path_8466" data-name="Path 8466" d="M240.373,268.352c-.106-.2.654-.851,1.444-1.763s1.337-1.748,1.52-1.656,0,1.17-.957,2.173S240.48,268.534,240.373,268.352Z" transform="translate(-133.962 -16.944)" fill="#e0e0e0"></path><path id="Path_8467" data-name="Path 8467" d="M291.46,381.346c0-.228,1.018-.41,2.295-.426s2.295.167,2.295.38-1.018.41-2.295.41S291.46,381.559,291.46,381.346Z" transform="translate(-107.406 43.341)" fill="#e0e0e0"></path><path id="Path_8468" data-name="Path 8468" d="M285.41,381.4c0-.228,1.018-.41,2.295-.426s2.295.167,2.295.38-1.018.41-2.295.41S285.41,381.609,285.41,381.4Z" transform="translate(-110.551 43.367)" fill="#e0e0e0"></path><path id="Path_8469" data-name="Path 8469" d="M279.36,381.446c0-.228,1.018-.41,2.295-.426s2.295.167,2.295.38-1.018.41-2.295.41S279.36,381.659,279.36,381.446Z" transform="translate(-113.695 43.393)" fill="#e0e0e0"></path><path id="Path_8470" data-name="Path 8470" d="M273.31,381.5c0-.228,1.018-.41,2.295-.426s2.295.167,2.295.38-1.018.41-2.295.41S273.31,381.709,273.31,381.5Z" transform="translate(-116.839 43.419)" fill="#e0e0e0"></path><path id="Path_8471" data-name="Path 8471" d="M267.26,381.546c0-.228,1.033-.41,2.295-.426s2.295.167,2.31.38-1.033.41-2.295.41S267.26,381.759,267.26,381.546Z" transform="translate(-119.984 43.444)" fill="#e0e0e0"></path><path id="Path_8472" data-name="Path 8472" d="M261.211,381.477c.076-.243,1.018-.243,2.295-.3s2.31.167,2.31.38-1.033.41-2.295.41S261.15,381.66,261.211,381.477Z" transform="translate(-123.129 43.467)" fill="#e0e0e0"></path><path id="Path_8473" data-name="Path 8473" d="M256.933,377.58c.213,0,.638.851,1.292,1.869s1.307,1.778,1.155,1.945-1.094-.38-1.824-1.52S256.72,377.61,256.933,377.58Z" transform="translate(-125.401 41.605)" fill="#e0e0e0"></path><path id="Path_8474" data-name="Path 8474" d="M256.77,371.55c.213,0,.41,1.018.41,2.295s-.152,2.295-.38,2.295-.4-1.018-.41-2.295S256.557,371.55,256.77,371.55Z" transform="translate(-125.633 38.471)" fill="#e0e0e0"></path><path id="Path_8475" data-name="Path 8475" d="M256.72,365.5c.213,0,.41,1.018.41,2.295s-.152,2.295-.38,2.295-.4-1.018-.41-2.295S256.507,365.5,256.72,365.5Z" transform="translate(-125.659 35.327)" fill="#e0e0e0"></path><path id="Path_8476" data-name="Path 8476" d="M256.67,359.45c.213,0,.41,1.018.41,2.295s-.152,2.295-.38,2.295-.4-1.018-.41-2.295S256.457,359.45,256.67,359.45Z" transform="translate(-125.685 32.182)" fill="#e0e0e0"></path><path id="Path_8477" data-name="Path 8477" d="M256.62,353.4c.213,0,.41,1.033.41,2.295s-.152,2.295-.365,2.295-.41-1.018-.426-2.295S256.408,353.4,256.62,353.4Z" transform="translate(-125.711 29.038)" fill="#e0e0e0"></path><path id="Path_8478" data-name="Path 8478" d="M256.57,347.35c.213,0,.41,1.033.41,2.295s-.152,2.295-.38,2.31-.4-1.033-.41-2.295S256.357,347.35,256.57,347.35Z" transform="translate(-125.737 25.894)" fill="#e0e0e0"></path><path id="Path_8479" data-name="Path 8479" d="M257.308,341.383c.213.091-.091,1.064-.274,2.249s-.243,2.234-.486,2.234-.5-1.018-.3-2.356S257.125,341.277,257.308,341.383Z" transform="translate(-125.745 22.788)" fill="#e0e0e0"></path><path id="Path_8480" data-name="Path 8480" d="M263.251,338.367c0,.228-1,.365-2.158.714s-2.067.775-2.188.578.669-.957,1.96-1.337S263.266,338.154,263.251,338.367Z" transform="translate(-124.333 21.093)" fill="#e0e0e0"></path><path id="Path_8481" data-name="Path 8481" d="M269.385,338.36c0,.213-1.033.4-2.295.41s-2.31-.152-2.31-.38,1.033-.4,2.295-.41S269.37,338.132,269.385,338.36Z" transform="translate(-121.273 21.024)" fill="#e0e0e0"></path><path id="Path_8482" data-name="Path 8482" d="M275.435,338.31c0,.213-1.033.4-2.295.41s-2.31-.152-2.31-.38,1.033-.4,2.295-.41S275.42,338.037,275.435,338.31Z" transform="translate(-118.128 20.998)" fill="#e0e0e0"></path><path id="Path_8483" data-name="Path 8483" d="M281.47,338.26c0,.213-1.018.4-2.295.41s-2.295-.152-2.295-.38,1.018-.4,2.295-.41S281.47,338.063,281.47,338.26Z" transform="translate(-114.984 20.972)" fill="#e0e0e0"></path><path id="Path_8484" data-name="Path 8484" d="M287.57,338.21c0,.213-1.018.4-2.295.41s-2.295-.152-2.295-.38,1.018-.4,2.295-.41S287.57,337.982,287.57,338.21Z" transform="translate(-111.814 20.946)" fill="#e0e0e0"></path><path id="Path_8485" data-name="Path 8485" d="M293.57,338.13c0,.213-1.018.4-2.295.41s-2.295-.152-2.295-.38,1.018-.4,2.295-.41S293.57,337.948,293.57,338.13Z" transform="translate(-108.695 20.904)" fill="#e0e0e0"></path><path id="Path_8486" data-name="Path 8486" d="M299.138,340.06c-.152.167-1-.4-2.1-.9s-2.036-.821-2.021-1.033,1.14-.258,2.371.319S299.29,339.908,299.138,340.06Z" transform="translate(-105.556 21.026)" fill="#e0e0e0"></path><path id="Path_8487" data-name="Path 8487" d="M299.745,346.436c-.213,0-.4-1.033-.41-2.295a8.831,8.831,0,0,1,0-2.28c.152-.076.714.912.729,2.264S299.973,346.436,299.745,346.436Z" transform="translate(-103.351 23.039)" fill="#e0e0e0"></path><path id="Path_8488" data-name="Path 8488" d="M299.771,352.495c-.213,0-.4-1.033-.41-2.295s.152-2.31.38-2.31.4,1.033.41,2.295S300,352.48,299.771,352.495Z" transform="translate(-103.301 26.174)" fill="#e0e0e0"></path><path id="Path_8489" data-name="Path 8489" d="M299.821,358.57c-.213,0-.4-1.018-.41-2.295s.152-2.295.38-2.295.4,1.033.41,2.295S300.049,358.57,299.821,358.57Z" transform="translate(-103.275 29.34)" fill="#e0e0e0"></path><path id="Path_8490" data-name="Path 8490" d="M299.871,364.57c-.213,0-.4-1.018-.41-2.295s.152-2.295.38-2.295.4,1.018.41,2.295S300.1,364.57,299.871,364.57Z" transform="translate(-103.249 32.458)" fill="#e0e0e0"></path><path id="Path_8491" data-name="Path 8491" d="M299.921,370.63c-.213,0-.4-1.018-.41-2.295s.152-2.295.38-2.295.4,1.018.41,2.295S300.149,370.63,299.921,370.63Z" transform="translate(-103.223 35.607)" fill="#e0e0e0"></path><path id="Path_8492" data-name="Path 8492" d="M299.971,376.68c-.213,0-.4-1.018-.41-2.295s.152-2.295.38-2.295.4,1.018.41,2.295S300.229,376.68,299.971,376.68Z" transform="translate(-103.197 38.752)" fill="#e0e0e0"></path><path id="Path_8493" data-name="Path 8493" d="M297.363,381.482c-.106-.2.653-.851,1.444-1.763s1.337-1.748,1.52-1.657,0,1.17-.957,2.188S297.47,381.664,297.363,381.482Z" transform="translate(-104.343 41.852)" fill="#e0e0e0"></path><path id="Path_8494" data-name="Path 8494" d="M291.46,326.016c0-.228,1.018-.41,2.295-.426s2.295.167,2.295.38-1.018.41-2.295.41S291.46,326.213,291.46,326.016Z" transform="translate(-107.406 14.584)" fill="#e0e0e0"></path><path id="Path_8495" data-name="Path 8495" d="M285.41,326.066c0-.228,1.018-.41,2.295-.426s2.295.167,2.295.38-1.018.41-2.295.41S285.41,326.279,285.41,326.066Z" transform="translate(-110.551 14.61)" fill="#e0e0e0"></path><path id="Path_8496" data-name="Path 8496" d="M279.36,326.146c0-.228,1.018-.41,2.295-.426s2.295.167,2.295.38-1.018.41-2.295.41S279.36,326.313,279.36,326.146Z" transform="translate(-113.695 14.652)" fill="#e0e0e0"></path><path id="Path_8497" data-name="Path 8497" d="M273.31,326.146c0-.228,1.018-.41,2.295-.426s2.295.167,2.295.38-1.018.41-2.295.41S273.31,326.389,273.31,326.146Z" transform="translate(-116.839 14.652)" fill="#e0e0e0"></path><path id="Path_8498" data-name="Path 8498" d="M267.26,326.216c0-.228,1.033-.41,2.295-.426s2.295.167,2.31.38-1.033.41-2.295.41S267.26,326.429,267.26,326.216Z" transform="translate(-119.984 14.688)" fill="#e0e0e0"></path><path id="Path_8499" data-name="Path 8499" d="M261.211,326.107c.076-.243,1.018-.243,2.295-.3s2.31.167,2.31.38-1.033.41-2.295.41S261.15,326.35,261.211,326.107Z" transform="translate(-123.129 14.69)" fill="#e0e0e0"></path><path id="Path_8500" data-name="Path 8500" d="M256.933,322.25c.213,0,.638.851,1.292,1.869s1.307,1.778,1.155,1.945-1.094-.38-1.824-1.52S256.72,322.28,256.933,322.25Z" transform="translate(-125.401 12.849)" fill="#e0e0e0"></path><path id="Path_8501" data-name="Path 8501" d="M256.77,316.22c.213,0,.41,1.018.41,2.295s-.152,2.295-.38,2.295-.4-1.018-.41-2.295S256.557,316.22,256.77,316.22Z" transform="translate(-125.633 9.715)" fill="#e0e0e0"></path><path id="Path_8502" data-name="Path 8502" d="M256.72,310.17c.213,0,.41,1.018.41,2.295s-.152,2.295-.38,2.295-.4-1.018-.41-2.295S256.507,310.17,256.72,310.17Z" transform="translate(-125.659 6.571)" fill="#e0e0e0"></path><path id="Path_8503" data-name="Path 8503" d="M256.67,304.12c.213,0,.41,1.018.41,2.295s-.152,2.295-.38,2.295-.4-1.018-.41-2.295S256.457,304.12,256.67,304.12Z" transform="translate(-125.685 3.426)" fill="#e0e0e0"></path><path id="Path_8504" data-name="Path 8504" d="M256.62,298.07c.213,0,.41,1.033.41,2.295s-.152,2.295-.365,2.295-.41-1.018-.426-2.295S256.408,298.07,256.62,298.07Z" transform="translate(-125.711 0.282)" fill="#e0e0e0"></path><path id="Path_8505" data-name="Path 8505" d="M256.57,292c.213,0,.41,1.033.41,2.295s-.152,2.295-.38,2.31-.4-1.033-.41-2.295S256.357,292,256.57,292Z" transform="translate(-125.737 -2.873)" fill="#e0e0e0"></path><path id="Path_8506" data-name="Path 8506" d="M257.308,286.052c.213.091-.091,1.064-.274,2.249s-.243,2.234-.486,2.234-.5-1.018-.3-2.356S257.125,285.976,257.308,286.052Z" transform="translate(-125.745 -5.967)" fill="#e0e0e0"></path><path id="Path_8507" data-name="Path 8507" d="M263.251,283.1c0,.228-1,.365-2.158.714s-2.067.775-2.188.578.669-.957,1.96-1.337S263.266,282.806,263.251,283.1Z" transform="translate(-124.333 -7.645)" fill="#e0e0e0"></path><path id="Path_8508" data-name="Path 8508" d="M269.385,283.03c0,.213-1.033.4-2.295.41s-2.31-.152-2.31-.38,1.033-.4,2.295-.41S269.37,282.8,269.385,283.03Z" transform="translate(-121.273 -7.733)" fill="#e0e0e0"></path><path id="Path_8509" data-name="Path 8509" d="M275.435,282.98c0,.213-1.033.4-2.295.41s-2.31-.152-2.31-.38,1.033-.4,2.295-.41S275.42,282.752,275.435,282.98Z" transform="translate(-118.128 -7.759)" fill="#e0e0e0"></path><path id="Path_8510" data-name="Path 8510" d="M281.47,282.93c0,.213-1.018.4-2.295.41s-2.295-.152-2.295-.38,1.018-.4,2.295-.41S281.47,282.7,281.47,282.93Z" transform="translate(-114.984 -7.785)" fill="#e0e0e0"></path><path id="Path_8511" data-name="Path 8511" d="M287.57,282.88c0,.213-1.018.4-2.295.41s-2.295-.152-2.295-.38,1.018-.4,2.295-.41S287.57,282.652,287.57,282.88Z" transform="translate(-111.814 -7.811)" fill="#e0e0e0"></path><path id="Path_8512" data-name="Path 8512" d="M293.57,282.83c0,.213-1.018.4-2.295.41s-2.295-.152-2.295-.38,1.018-.4,2.295-.41S293.57,282.6,293.57,282.83Z" transform="translate(-108.695 -7.837)" fill="#e0e0e0"></path><path id="Path_8513" data-name="Path 8513" d="M299.138,284.71c-.152.167-1-.4-2.1-.9s-2.036-.821-2.021-1.033,1.14-.258,2.371.319S299.29,284.588,299.138,284.71Z" transform="translate(-105.556 -7.741)" fill="#e0e0e0"></path><path id="Path_8514" data-name="Path 8514" d="M299.745,291.106c-.213,0-.4-1.033-.41-2.295a8.831,8.831,0,0,1,0-2.28c.152-.076.714.912.729,2.264S299.973,291.106,299.745,291.106Z" transform="translate(-103.351 -5.717)" fill="#e0e0e0"></path><path id="Path_8515" data-name="Path 8515" d="M299.771,297.165c-.213,0-.4-1.033-.41-2.295s.152-2.31.38-2.31.4,1.033.41,2.295S300,297.15,299.771,297.165Z" transform="translate(-103.301 -2.582)" fill="#e0e0e0"></path><path id="Path_8516" data-name="Path 8516" d="M299.821,303.215c-.213,0-.4-1.033-.41-2.295s.152-2.31.38-2.31.4,1.033.41,2.295S300.049,303.2,299.821,303.215Z" transform="translate(-103.275 0.563)" fill="#e0e0e0"></path><path id="Path_8517" data-name="Path 8517" d="M299.871,309.25c-.213,0-.4-1.018-.41-2.295s.152-2.295.38-2.295.4,1.018.41,2.295S300.1,309.25,299.871,309.25Z" transform="translate(-103.249 3.707)" fill="#e0e0e0"></path><path id="Path_8518" data-name="Path 8518" d="M299.921,315.3c-.213,0-.4-1.018-.41-2.295s.152-2.295.38-2.295.4,1.018.41,2.295S300.149,315.3,299.921,315.3Z" transform="translate(-103.223 6.851)" fill="#e0e0e0"></path><path id="Path_8519" data-name="Path 8519" d="M299.971,321.35c-.213,0-.4-1.018-.41-2.295s.152-2.295.38-2.295.4,1.018.41,2.295S300.229,321.35,299.971,321.35Z" transform="translate(-103.197 9.995)" fill="#e0e0e0"></path><path id="Path_8520" data-name="Path 8520" d="M297.363,326.172c-.106-.2.653-.851,1.444-1.763s1.337-1.748,1.52-1.656,0,1.17-.957,2.188S297.47,326.324,297.363,326.172Z" transform="translate(-104.343 13.106)" fill="#e0e0e0"></path><ellipse id="Ellipse_756" data-name="Ellipse 756" cx="12.644" cy="12.644" rx="12.644" ry="12.644" transform="matrix(0.903, -0.429, 0.429, 0.903, 88.891, 94.285)" fill="#2274e5"></ellipse><path id="Path_8521" data-name="Path 8521" d="M245.744,171.768c0,1.854-1.322,3.3-4,3.313a5.8,5.8,0,0,1-4.027-1.4l.547-.912a4.878,4.878,0,0,0,3.465,1.261c1.839,0,2.857-.881,2.842-2.264s-.957-2.188-3.039-2.173h-.79v-.836l3.039-3.891H238.1V163.85h7.158v.821l-3.039,3.982C244.5,168.744,245.744,169.99,245.744,171.768Z" transform="translate(-135.336 -69.475)" fill="#fff"></path><path id="Path_8522" data-name="Path 8522" d="M241.934,397.257a3.222,3.222,0,1,1-.965-2.285A3.237,3.237,0,0,1,241.934,397.257Z" transform="translate(-136.511 50.165)" fill="#263238"></path><path id="Path_8523" data-name="Path 8523" d="M253.834,397.151a3.237,3.237,0,1,1-3.252-3.191,3.237,3.237,0,0,1,3.252,3.191Z" transform="translate(-130.326 50.118)" fill="#263238"></path><path id="Path_8524" data-name="Path 8524" d="M265.744,397.091a3.237,3.237,0,1,1-3.252-3.191A3.237,3.237,0,0,1,265.744,397.091Z" transform="translate(-124.136 50.087)" fill="#263238"></path><path id="Path_8525" data-name="Path 8525" d="M312.491,139.061c0,.122-4.24.274-9.483.319s-9.5,0-9.5-.167,4.24-.274,9.483-.319S312.491,138.969,312.491,139.061Z" transform="translate(-106.341 -82.451)" fill="#263238"></path><path id="Path_8526" data-name="Path 8526" d="M312.557,142.306c0,.122-4.255.258-9.5.3a88.853,88.853,0,0,1-9.5-.152,93.491,93.491,0,0,1,9.5-.319,90.882,90.882,0,0,1,9.5.167Z" transform="translate(-106.315 -80.788)" fill="#263238"></path><path id="Path_8527" data-name="Path 8527" d="M312.587,145.477a93.487,93.487,0,0,1-9.5.319c-5.243,0-9.5,0-9.5-.152a93.494,93.494,0,0,1,9.5-.319C308.331,145.279,312.587,145.355,312.587,145.477Z" transform="translate(-106.299 -79.11)" fill="#263238"></path><path id="Path_8528" data-name="Path 8528" d="M192.39,154.517h1.5l3.982-.106h0v-4.635a1.611,1.611,0,0,1,1.383-1.277H201.2a1.626,1.626,0,0,1,1.368,1.6c0,1.383,0,2.811,0,4.3l-.228-.228h5.121l-.228.228V146.4a1.52,1.52,0,0,0-.714-1.185l-2.234-2.2-2.158-2.128-1.033-1.033c-.365-.35-.638-.7-1.049-.775a1.322,1.322,0,0,0-1.14.213c-.3.258-.638.623-.957.927l-1.824,1.854c-1.155,1.2-2.371,2.295-3.237,3.328a3.571,3.571,0,0,0-.258,1.884v6.565a3.5,3.5,0,0,1,0,.669,5.4,5.4,0,0,1,0-.608c0-.517,0-1.109,0-1.824s0-1.824-.076-2.933v-1.839a3.982,3.982,0,0,1,.274-2.1c.957-1.17,2.082-2.188,3.237-3.419l1.824-1.869c.334-.319.593-.638.988-.988a1.763,1.763,0,0,1,1.52-.289,2.736,2.736,0,0,1,1.246.881l1.049,1.033,2.173,2.112,2.234,2.2a2.082,2.082,0,0,1,.851,1.52c0,.547,0,1.079,0,1.626v6.611H202.39v-4.514a1.216,1.216,0,0,0-1.018-1.216h-1.839a1.246,1.246,0,0,0-1.079.973c0,.5,0,1.109,0,1.641v3.039h-5.775A1.427,1.427,0,0,1,192.39,154.517Z" transform="translate(-158.895 -82.604)" fill="#263238"></path><rect id="Rectangle_1099" data-name="Rectangle 1099" width="65.591" height="65.591" rx="5.4" transform="translate(205.366 363.638) rotate(-0.573)" fill="#455a64"></rect><path id="Path_8529" data-name="Path 8529" d="M316.13,365.939l.684.532,1.839,1.52,6.732,5.532.091.076v.122c-.319,3.343-.7,7.371-1.14,11.884l-.486-.3L334,379.008l.167-.106.167.091,10.942,4.8-.532.441q-1.368-5.608-2.827-11.6c0-.167-.091.35.091-.365h0V372.2l.137-.152.258-.274.5-.578,1.018-1.125,2.006-2.249,3.936-4.377.258.653-11.9-.942h-.2l-.091-.167-5.957-10.349h.562l-4.559,11.018v.122h-.122l-8.556,1.687-2.325.441a6.34,6.34,0,0,1-.851.152l.729-.182,2.234-.532,8.662-2.021-.167.137,4.483-11.079.228-.593.334.562,6.079,10.3-.289-.182,11.915.9h.775l-.517.577-3.921,4.392-2.006,2.234-1.018,1.14-.517.562-.243.289-.137.152h0c.182-.714,0-.2.091-.35.957,3.966,1.9,7.857,2.8,11.6l.182.775-.714-.319L334.2,379.555h.334l-10.2,6.216-.547.334.076-.638c.486-4.559.927-8.541,1.292-11.869l.091.2-6.687-5.881-1.717-1.52Z" transform="translate(-94.585 28.201)" fill="#fafafa"></path></g><g id="Character--inject-129" transform="translate(25.075 154.719)"><path id="Path_8530" data-name="Path 8530" d="M149.629,347.48,161.62,462.052H140.8l-20.79-99.071Z" transform="translate(-23.052 -65.476)" fill="#ffbe9d"></path><path id="Path_8531" data-name="Path 8531" d="M142.5,310.3H106.175l7.72,66.716L59.58,452.7l11.079,14.164,60.318-62.7,12.568-13.5a14.24,14.24,0,0,0,3.784-10.638Z" transform="translate(-54.459 -84.8)" fill="#ffbe9d"></path><path id="Path_8532" data-name="Path 8532" d="M125.46,340.32a3.147,3.147,0,0,1,.274.76c.152.5.365,1.246.608,2.219.486,1.945,1.14,4.772,1.717,8.313a65.2,65.2,0,0,1,.973,12.553,22.31,22.31,0,0,1-1.429,7.386,24.072,24.072,0,0,1-4.559,6.58c-7.6,7.9-14.422,14.984-19.407,20.106l-5.957,6.079-1.641,1.611c-.38.365-.593.547-.608.517a3.537,3.537,0,0,1,.5-.623l1.52-1.717,5.76-6.2c5-5.273,11.763-12.386,19.224-20.273a23.283,23.283,0,0,0,4.559-6.352,21.671,21.671,0,0,0,1.413-7.1,69.905,69.905,0,0,0-.79-12.447c-.517-3.526-1.079-6.368-1.52-8.313l-.456-2.264A2.841,2.841,0,0,1,125.46,340.32Z" transform="translate(-35.826 -69.198)" fill="#eb996e"></path><path id="Path_8533" data-name="Path 8533" d="M166.791,260.959h0l.638-.091a141.725,141.725,0,0,0,15.349-3.039c6.216-1.915,6.079-2.492,5.729-3.176-.881-1.869-11.033,2.948-9.422.638s13.07-4.438,12.067-6.352c-1.307-2.477-11.854,2.766-12.781,3.146s-1.52-.957-.608-1.261c1.216-.425,13.951-5.2,12.69-7.6-.7-1.353-3.039.2-3.039.2s-11.611,5.349-12.158,4.179,6.155-4.559,8.5-5.562,2.811-2.462,1.52-3.146c-.851-.471-8.085,2.356-10.38,3.374s-8.541,3.936-6.565,0a.288.288,0,0,1,.076-.2c2.052-3.845,2.371-7.492,1.733-8.617a1.63,1.63,0,0,0-2.842,1,2.526,2.526,0,0,0,0,.334,22.613,22.613,0,0,1-1.672,4.179,12.157,12.157,0,0,1-2.371,3.237c-1.094,1.064-2.082,1.945-2.933,2.66L151.7,248.3l7.811,14.772,5.577-1.079" transform="translate(-6.582 -125.077)" fill="#ffbe9d"></path><path id="Path_8534" data-name="Path 8534" d="M149.072,253.268l28.875-9.513,6.611,21.048-39.33,13.86a14.361,14.361,0,0,1-17.781-7.462l-6.656-25.622L141,230.29Z" transform="translate(-22.646 -126.383)" fill="#2274e5"></path><path id="Path_8535" data-name="Path 8535" d="M110.884,208.446s-33.1-4.407-30.394,29.012c.881,11.14,5.851,27.051,9.453,35.911a13.677,13.677,0,0,1,.319,9.377c-3.161,9.893-11.109,24.5-12.462,32.674l68.281,5.714-.2-56.625,11.763-4.818,9.924-3.906c-13.07-55.136-37.385-48.023-37.385-48.023l-19.3.623" transform="translate(-44.989 -138.246)" fill="#2274e5"></path><g id="Group_1429" data-name="Group 1429" transform="translate(36.944 108.132)" opacity="0.2"><path id="Path_8536" data-name="Path 8536" d="M89.5,262.826c.653,5.061-1.52,9.544-3.739,14.7,0,0,9.62,22.522,18.617,23.525,7.6.866,24.437,2.447,40.257,3.936l.532-12.766L80.52,233.07C81.705,240.881,85.368,250.851,89.5,262.826Z" transform="translate(-80.52 -233.07)"></path></g><path id="Path_8537" data-name="Path 8537" d="M178.531,406.611c-16.291-33.768-29.771-69.907-30.79-107.4l.426-63.372-26.276,3.039-10.927,61.138L79.05,300.7c-6.413,15.2-5.106,31.777-.745,46.944,5.106,17.8,16.094,35.03,13.191,53.312-.7,4.331-2.006,9.316.775,12.69,1.854,2.264,4.969,3.039,7.827,3.556,22.659,4.559,46.534,9.042,68.509,1.854a8.51,8.51,0,0,0,4.058-2.447C176.662,411.778,179.838,409.195,178.531,406.611Z" transform="translate(-46.634 -123.498)" fill="#263238"></path><path id="Path_8538" data-name="Path 8538" d="M103.22,280.89a5.973,5.973,0,0,1-.532,3.039,11.656,11.656,0,0,1-11.869,7.6,6.079,6.079,0,0,1-3.039-.79c0-.122,1.17.213,3.039.228a12.158,12.158,0,0,0,11.322-7.234C102.932,282.03,103.084,280.86,103.22,280.89Z" transform="translate(-39.802 -100.085)" fill="#455a64"></path><path id="Path_8539" data-name="Path 8539" d="M122.352,223.2a5.318,5.318,0,0,1-.243,1.52c-.213.973-.532,2.386-.957,4.134v-.213c.836,1.413,1.763,3.131,2.69,5.061a31.915,31.915,0,0,1,2.477,6.565,8.573,8.573,0,0,1,.167,1.4v1.322a22.886,22.886,0,0,1-.2,2.538,43.507,43.507,0,0,1-.79,4.559,38.1,38.1,0,0,1-1.991,6.352v-.106a7.6,7.6,0,0,1-.182,2.1,9.561,9.561,0,0,1-.182-2.1h0a53.535,53.535,0,0,0,1.672-6.352c.274-1.383.517-2.887.684-4.559,0-.805.137-1.641.167-2.492v-1.292a9,9,0,0,0-.152-1.246,33.953,33.953,0,0,0-2.356-6.413c-.9-1.93-1.763-3.647-2.538-5.091v-.213c.5-1.717.912-3.115,1.216-4.073a5.5,5.5,0,0,1,.517-1.4Z" transform="translate(-22.735 -130.067)" fill="#263238"></path><path id="Path_8540" data-name="Path 8540" d="M116.793,240.48a5.446,5.446,0,0,1-.988,1.824,10.79,10.79,0,0,1-8.814,4.027,3.784,3.784,0,0,1-1.991-.5,18.085,18.085,0,0,0,6.565-1.246,18.1,18.1,0,0,0,5.228-4.1Z" transform="translate(-30.853 -121.087)" fill="#263238"></path><path id="Path_8541" data-name="Path 8541" d="M86.76,210.774s19.452,13.678,29.391,41.853l4.407-.562s-7.447-28.039-30.577-42.735A12.294,12.294,0,0,0,86.76,210.774Z" transform="translate(-40.332 -137.276)" fill="#263238"></path><path id="Path_8542" data-name="Path 8542" d="M116,207.941s12.158,20.79,12.568,43.494h-4.164S119.56,216.269,110.73,207.5Z" transform="translate(-27.875 -138.227)" fill="#263238"></path><path id="Path_8543" data-name="Path 8543" d="M110.945,237.4a4,4,0,0,1,.821,1.717,4.438,4.438,0,0,1,.122,2.143,3.039,3.039,0,0,1-1.657,2.158,2.492,2.492,0,0,1-2.69-.577,3.708,3.708,0,0,1-1.018-1.915c-.243-1.17-.167-1.884,0-1.9s.243.7.608,1.748a3.541,3.541,0,0,0,.988,1.52,1.778,1.778,0,0,0,1.869.41,2.447,2.447,0,0,0,1.261-1.611,4.559,4.559,0,0,0,0-1.854C111.021,238.145,110.824,237.446,110.945,237.4Z" transform="translate(-30.142 -122.687)" fill="#455a64"></path><path id="Path_8544" data-name="Path 8544" d="M108.014,238.636v.441a.274.274,0,0,0,.122.182.364.364,0,0,0,.152,0c.091,0,.122,0,.137-.106a.35.35,0,0,0,0-.213c-.106-.152-.258-.2-.3-.289s.167-.35.593-.182a.775.775,0,0,1,.486.623.866.866,0,0,1-.517.9.881.881,0,0,1-1.018-.2.79.79,0,0,1-.137-.79C107.634,238.545,108,238.545,108.014,238.636Z" transform="translate(-29.566 -122.16)" fill="#455a64"></path><path id="Path_8545" data-name="Path 8545" d="M122.143,238.97c0,.106-.243.228-.653.182a2.264,2.264,0,0,1-1.9-2.264c0-.41.2-.623.289-.608a5.858,5.858,0,0,0,.851,1.52C121.353,238.453,122.128,238.757,122.143,238.97Z" transform="translate(-23.27 -123.27)" fill="#455a64"></path><path id="Path_8546" data-name="Path 8546" d="M122.017,246.518a22.66,22.66,0,0,1-5.821,1.307,22.8,22.8,0,0,1-5.927.517,22.642,22.642,0,0,1,5.805-1.307,22.794,22.794,0,0,1,5.942-.517Z" transform="translate(-28.114 -117.96)" fill="#455a64"></path><path id="Path_8547" data-name="Path 8547" d="M112.62,292.24a39.66,39.66,0,0,0,1.854,4.848c1.2,2.948,2.857,7.036,4.559,11.58s3.3,8.678,4.407,11.687a38.219,38.219,0,0,0,1.915,4.818,5.639,5.639,0,0,0-.319-1.368c-.228-.866-.608-2.1-1.109-3.617-.988-3.039-2.447-7.234-4.225-11.778s-3.511-8.617-4.833-11.535c-.669-1.52-1.231-2.629-1.626-3.419a5.471,5.471,0,0,0-.623-1.216Z" transform="translate(-26.892 -94.186)" fill="#455a64"></path><path id="Path_8548" data-name="Path 8548" d="M73.337,419.994l1.383-1.216-12.75-15.7-5.76,5.03.775.988c3.435,4.362,17.781,21.945,21.079,23.981C81.726,435.344,73.337,419.994,73.337,419.994Z" transform="translate(-56.21 -36.58)" fill="#2274e5"></path><g id="Group_1430" data-name="Group 1430" transform="translate(0.228 367.579)" opacity="0.5"><path id="Path_8549" data-name="Path 8549" d="M61.071,413.106a6.914,6.914,0,0,0,1.52-4.757,6.763,6.763,0,0,0-2.006-4.559l-4.225,3.723Z" transform="translate(-56.36 -403.79)" fill="#fff"></path></g><g id="Group_1431" data-name="Group 1431" transform="translate(0.03 371.257)" opacity="0.5"><path id="Path_8550" data-name="Path 8550" d="M77.157,426.073s2.675,5.623,1.52,5.714-16.413-17.127-22.446-25.3l.365-.273,17.522,20.243S76.4,425.222,77.157,426.073Z" transform="translate(-56.23 -406.21)" fill="#fff"></path></g><path id="Path_8551" data-name="Path 8551" d="M56.32,406.05a1.356,1.356,0,0,0,.2.289l.608.775,2.295,2.857c1.96,2.386,4.711,5.638,7.827,9.118s6,6.687,8.115,8.921l2.538,2.644.7.714a1.526,1.526,0,0,0,.243.228s0-.091-.213-.258l-.669-.745-2.477-2.69c-2.082-2.28-4.954-5.441-8.055-8.966s-5.881-6.778-7.872-9.118l-2.356-2.8-.638-.745a2.2,2.2,0,0,0-.243-.228Z" transform="translate(-56.153 -35.036)" fill="#263238"></path><path id="Path_8552" data-name="Path 8552" d="M67.83,419.978a5.259,5.259,0,0,1,3.632-.623,3.222,3.222,0,0,0-3.632.623Z" transform="translate(-50.171 -28.28)" fill="#263238"></path><path id="Path_8553" data-name="Path 8553" d="M66.73,415.532c0,.076.456,0,1,0a2.325,2.325,0,0,0,.957-.274,2.371,2.371,0,0,0-1,0,2.326,2.326,0,0,0-.957.274Z" transform="translate(-50.743 -30.278)" fill="#263238"></path><path id="Path_8554" data-name="Path 8554" d="M66.45,414.268a3.624,3.624,0,0,0,.821.213,3.343,3.343,0,0,0,.851,0,3.624,3.624,0,0,0-.821-.213C66.845,414.207,66.45,414.192,66.45,414.268Z" transform="translate(-50.888 -30.792)" fill="#263238"></path><path id="Path_8555" data-name="Path 8555" d="M66.94,412.911a4.539,4.539,0,0,0,.593.881c.38.441.729.76.775.714s-.213-.441-.593-.881S67.031,412.866,66.94,412.911Z" transform="translate(-50.633 -31.472)" fill="#263238"></path><path id="Path_8556" data-name="Path 8556" d="M67.44,412.16a2.021,2.021,0,0,0,.532,1.094,2.173,2.173,0,0,0,.912.805s-.334-.426-.729-.957S67.516,412.13,67.44,412.16Z" transform="translate(-50.374 -31.861)" fill="#263238"></path><path id="Path_8557" data-name="Path 8557" d="M67.932,415.023a4.239,4.239,0,0,0,.866.957,7.4,7.4,0,0,0,1.14.836,5.046,5.046,0,0,0,.76.38.76.76,0,0,0,.517,0,.5.5,0,0,0,.258-.486,2.371,2.371,0,0,0-2.462-1.748,2.341,2.341,0,0,0-.927.258c-.2.106-.289.2-.274.213a3.04,3.04,0,0,1,1.216-.289,2.188,2.188,0,0,1,1.261.349,2.1,2.1,0,0,1,.942,1.216c0,.258-.213.365-.471.274a3.388,3.388,0,0,1-.714-.334,8.218,8.218,0,0,1-1.14-.775C68.3,415.357,67.963,415.023,67.932,415.023Z" transform="translate(-50.182 -30.408)" fill="#263238"></path><path id="Path_8558" data-name="Path 8558" d="M68.059,416.117a1.143,1.143,0,0,0,.775-.486,2.3,2.3,0,0,0,.471-.881,1.322,1.322,0,0,0-.213-1.246.532.532,0,0,0-.714.091,1.368,1.368,0,0,0-.289.547,3.709,3.709,0,0,0-.182.973,1.9,1.9,0,0,0,.091.912s0-.35,0-.881a4.1,4.1,0,0,1,.228-.927c.091-.3.365-.729.623-.517a1.094,1.094,0,0,1,.152,1,2.279,2.279,0,0,1-.38.821A2.2,2.2,0,0,1,68.059,416.117Z" transform="translate(-50.141 -31.213)" fill="#263238"></path><path id="Path_8559" data-name="Path 8559" d="M59.21,403.861a7.321,7.321,0,0,1,.942,1.155,6.368,6.368,0,0,1,1.14,3.313,6.444,6.444,0,0,1-.805,3.4c-.441.805-.851,1.2-.821,1.231s.122-.076.3-.258a5.667,5.667,0,0,0,.669-.881,6.261,6.261,0,0,0,.9-3.511,6.079,6.079,0,0,0-1.246-3.4,4.451,4.451,0,0,0-.745-.805C59.347,403.921,59.225,403.845,59.21,403.861Z" transform="translate(-54.651 -36.175)" fill="#263238"></path><path id="Path_8560" data-name="Path 8560" d="M61.52,410.32a11.778,11.778,0,0,0,1.748,2.386,11.064,11.064,0,0,0,2.128,2.036s-.881-.973-1.945-2.2S61.581,410.29,61.52,410.32Z" transform="translate(-53.45 -32.817)" fill="#263238"></path><path id="Path_8561" data-name="Path 8561" d="M60,408.37s-.137.258-.274.562-.289.532-.243.578.3-.137.471-.486S60.06,408.37,60,408.37Z" transform="translate(-54.513 -33.83)" fill="#263238"></path><path id="Path_8562" data-name="Path 8562" d="M60.151,406.83c-.076,0-.137.228-.167.532s0,.532.091.532.137-.228.152-.517S60.212,406.83,60.151,406.83Z" transform="translate(-54.255 -34.631)" fill="#263238"></path><path id="Path_8563" data-name="Path 8563" d="M59.58,405.413s.137.258.258.547.137.562.213.562.152-.289,0-.653S59.61,405.367,59.58,405.413Z" transform="translate(-54.459 -35.372)" fill="#263238"></path><path id="Path_8564" data-name="Path 8564" d="M59.12,404.49v.35c0,.167.167.289.228.258s0-.167,0-.334S59.181,404.475,59.12,404.49Z" transform="translate(-54.698 -35.847)" fill="#263238"></path><path id="Path_8565" data-name="Path 8565" d="M153.917,423.875v-1.854l-20.227-.091.243,7.6h1.246c5.562.106,28.252.167,31.914-1.094C171.045,427.112,153.917,423.875,153.917,423.875Z" transform="translate(-15.942 -26.783)" fill="#2274e5"></path><g id="Group_1432" data-name="Group 1432" transform="translate(117.672 396.843)" opacity="0.5"><path id="Path_8566" data-name="Path 8566" d="M141.1,428.569a7.006,7.006,0,0,0-2.72-4.194,6.793,6.793,0,0,0-4.742-1.292l.2,5.623Z" transform="translate(-133.64 -423.046)" fill="#fff"></path></g><g id="Group_1433" data-name="Group 1433" transform="translate(117.854 398.977)" opacity="0.5"><path id="Path_8567" data-name="Path 8567" d="M162.224,424.45s6.079,1.52,5.334,2.523-23.647,1.808-33.8,1.292v-.456l26.762-.714S161.054,424.541,162.224,424.45Z" transform="translate(-133.76 -424.45)" fill="#fff"></path></g><path id="Path_8568" data-name="Path 8568" d="M133.57,427.071h4.985c3.039,0,7.355,0,12.067-.213s8.966-.41,12.051-.623l3.647-.273.988-.091h-.988l-3.663.2c-3.039.167-7.34.38-12.036.547s-8.982.243-12.067.289H133.9A1.345,1.345,0,0,0,133.57,427.071Z" transform="translate(-16.004 -24.735)" fill="#263238"></path><path id="Path_8569" data-name="Path 8569" d="M151.394,427.513a7.766,7.766,0,0,1,.623-1.763,8.346,8.346,0,0,1,1.185-1.52,3.268,3.268,0,0,0-1.809,3.207Z" transform="translate(-6.747 -25.588)" fill="#263238"></path><path id="Path_8570" data-name="Path 8570" d="M147.424,425.132a4.719,4.719,0,0,0,.608-.79,2.385,2.385,0,0,0,.4-.912,3.944,3.944,0,0,0-.608.79C147.546,424.691,147.363,425.1,147.424,425.132Z" transform="translate(-8.81 -26.003)" fill="#263238"></path><path id="Path_8571" data-name="Path 8571" d="M146.332,424.4a3.373,3.373,0,0,0,.684-.5c.334-.319.577-.623.532-.669s-.365.167-.7.486A1.845,1.845,0,0,0,146.332,424.4Z" transform="translate(-9.375 -26.109)" fill="#263238"></path><path id="Path_8572" data-name="Path 8572" d="M145.61,422.854c0,.076.471.106,1.049.091a2.358,2.358,0,0,0,1.049-.137,5.37,5.37,0,0,0-1.064-.106A2.326,2.326,0,0,0,145.61,422.854Z" transform="translate(-9.747 -26.385)" fill="#263238"></path><path id="Path_8573" data-name="Path 8573" d="M145.34,421.93a2.1,2.1,0,0,0,1.185.3,1.991,1.991,0,0,0,1.2-.213,8.537,8.537,0,0,0-1.185,0,6.9,6.9,0,0,0-1.2-.091Z" transform="translate(-9.887 -26.783)" fill="#263238"></path><path id="Path_8574" data-name="Path 8574" d="M147.82,424.006a3.57,3.57,0,0,0,1.292,0,7.245,7.245,0,0,0,1.368-.35,4.908,4.908,0,0,0,.775-.349.714.714,0,0,0,.3-.425.5.5,0,0,0-.213-.5,2.386,2.386,0,0,0-3.3,1.672v.35a3.815,3.815,0,0,1,.547-1.125,2.4,2.4,0,0,1,1.079-.745,2.036,2.036,0,0,1,1.52,0c.2.137.137.38-.091.532a4.348,4.348,0,0,1-.714.334,10.327,10.327,0,0,1-1.322.4C148.322,423.961,147.82,423.976,147.82,424.006Z" transform="translate(-8.598 -26.655)" fill="#263238"></path><path id="Path_8575" data-name="Path 8575" d="M148.652,424.257a1.247,1.247,0,0,0,.106-.9,2.022,2.022,0,0,0-.38-.942,1.307,1.307,0,0,0-1.094-.608.5.5,0,0,0-.38.608,1.353,1.353,0,0,0,.243.562,3.3,3.3,0,0,0,.638.76,2.156,2.156,0,0,0,.745.5s-.258-.228-.623-.623a3.964,3.964,0,0,1-.577-.76c-.182-.258-.319-.745,0-.821s.669.273.866.517a2.189,2.189,0,0,1,.4.836A5.011,5.011,0,0,1,148.652,424.257Z" transform="translate(-9.081 -26.845)" fill="#263238"></path><path id="Path_8576" data-name="Path 8576" d="M133.71,423.067h1.52a6.535,6.535,0,0,1,3.283,1.231,6.428,6.428,0,0,1,2.112,2.781c.35.851.4,1.429.441,1.429a1.246,1.246,0,0,0,0-.41,5.318,5.318,0,0,0-.258-1.079,6.078,6.078,0,0,0-2.143-2.918,6.215,6.215,0,0,0-3.419-1.2,5.348,5.348,0,0,0-1.094,0,1.156,1.156,0,0,0-.441.167Z" transform="translate(-15.931 -26.294)" fill="#263238"></path><path id="Path_8577" data-name="Path 8577" d="M140.17,425.428a12.162,12.162,0,0,0,2.948.167,11.764,11.764,0,0,0,2.918-.365,18.3,18.3,0,0,0-2.933.122C141.477,425.474,140.17,425.352,140.17,425.428Z" transform="translate(-12.574 -25.084)" fill="#263238"></path><path id="Path_8578" data-name="Path 8578" d="M137.58,425.423s.122.274.258.578.228.547.3.547.091-.319-.091-.669S137.626,425.377,137.58,425.423Z" transform="translate(-13.92 -24.972)" fill="#263238"></path><path id="Path_8579" data-name="Path 8579" d="M136.56,424.243a1.279,1.279,0,0,0,.3.456c.213.2.426.334.471.274s-.091-.243-.3-.456S136.606,424.2,136.56,424.243Z" transform="translate(-14.45 -25.586)" fill="#263238"></path><path id="Path_8580" data-name="Path 8580" d="M135.14,423.77a1.471,1.471,0,0,1,.593.152c.3.152.517.243.562.2s-.122-.319-.5-.426S135.125,423.71,135.14,423.77Z" transform="translate(-15.188 -25.888)" fill="#263238"></path><path id="Path_8581" data-name="Path 8581" d="M134.14,423.528a.555.555,0,0,0,.258.213.612.612,0,0,0,.35,0,.468.468,0,0,0-.258-.228C134.322,423.452,134.155,423.468,134.14,423.528Z" transform="translate(-15.708 -25.98)" fill="#263238"></path><path id="Path_8582" data-name="Path 8582" d="M116.38,171l3.982,26.869,6.079-1.155a4.073,4.073,0,0,0,2.781-1.322c.881-1.292,0-3.039-1.094-4.194s-2.523-2.082-2.933-3.6.4-3.207.4-4.818a8.389,8.389,0,0,0-1.717-4.559c-.927-1.368-2.052-2.219-2.052-6.6" transform="translate(-24.938 -157.197)" fill="#263238"></path><path id="Path_8583" data-name="Path 8583" d="M122.392,230.214c-.334-6.717-.562-13.784-.562-13.784s8.586-1.884,9.787-13.252c1.155-10.851-1.9-35.607-1.9-35.607h0A32.446,32.446,0,0,0,94.08,177.708h0l3.556,54.467a11.717,11.717,0,0,0,12.948,10.516h0a12.386,12.386,0,0,0,11.808-12.477Z" transform="translate(-36.528 -159.893)" fill="#ffbe9d"></path><path id="Path_8584" data-name="Path 8584" d="M118.3,180.274a1.52,1.52,0,0,1-1.322,1.52,1.383,1.383,0,0,1-1.52-1.231,1.52,1.52,0,0,1,1.322-1.52A1.383,1.383,0,0,1,118.3,180.274Z" transform="translate(-25.416 -153.021)" fill="#263238"></path><path id="Path_8585" data-name="Path 8585" d="M119.539,179.17c-.167.2-1.307-.547-2.872-.471s-2.644.927-2.827.745.076-.426.547-.821a4.027,4.027,0,0,1,2.264-.821,3.754,3.754,0,0,1,2.295.608C119.448,178.745,119.615,179.079,119.539,179.17Z" transform="translate(-26.289 -153.665)" fill="#263238"></path><path id="Path_8586" data-name="Path 8586" d="M107.522,180.994a1.52,1.52,0,0,1-1.322,1.52,1.383,1.383,0,0,1-1.52-1.231,1.52,1.52,0,0,1,1.322-1.52,1.383,1.383,0,0,1,1.52,1.231Z" transform="translate(-31.019 -152.647)" fill="#263238"></path><path id="Path_8587" data-name="Path 8587" d="M108.872,180.1c-.167.2-1.307-.562-2.872-.471s-2.644.912-2.827.729,0-.426.547-.805a3.921,3.921,0,0,1,2.264-.836,3.86,3.86,0,0,1,2.295.608C108.781,179.679,109.024,180.014,108.872,180.1Z" transform="translate(-31.838 -153.187)" fill="#263238"></path><path id="Path_8588" data-name="Path 8588" d="M111.468,191.449a9.879,9.879,0,0,1,2.508-.577c.4,0,.76-.167.821-.441a2.006,2.006,0,0,0-.334-1.17l-1.322-3.039a53,53,0,0,1-3.039-7.781,52.992,52.992,0,0,1,3.663,7.523c.456,1.033.881,2.036,1.292,3.039a2.386,2.386,0,0,1,.289,1.52,1.049,1.049,0,0,1-.623.623,2.4,2.4,0,0,1-.669.122A10,10,0,0,1,111.468,191.449Z" transform="translate(-28.202 -153.33)" fill="#263238"></path><path id="Path_8589" data-name="Path 8589" d="M117.574,200.222A28.692,28.692,0,0,1,102.27,197s4.058,7.6,15.3,5.927Z" transform="translate(-32.272 -143.684)" fill="#eb996e"></path><path id="Path_8590" data-name="Path 8590" d="M108.193,189.4a4.559,4.559,0,0,1,1.687-1.094,1.52,1.52,0,0,1,1.748.638c.106.243.2.547.441.577s.319-.106.5-.137.486.213.532.471a1.277,1.277,0,0,1-.182.775,7.25,7.25,0,0,1-.76,1.277,3.267,3.267,0,0,1-1.4,1.216,2.538,2.538,0,0,1-1.611,0,2.705,2.705,0,0,1-1.611-1.14,2.082,2.082,0,0,1-.152-1.93,1.687,1.687,0,0,1,1.52-1.018" transform="translate(-29.699 -148.241)" fill="#eb996e"></path><path id="Path_8591" data-name="Path 8591" d="M108.088,187.9c.258,0,.35,1.656,1.854,2.781s3.3.851,3.328,1.079-.4.35-1.155.41a4.255,4.255,0,0,1-2.766-.805,3.693,3.693,0,0,1-1.52-2.34A2.732,2.732,0,0,1,108.088,187.9Z" transform="translate(-29.382 -148.414)" fill="#263238"></path><path id="Path_8592" data-name="Path 8592" d="M99.427,181.707a6.823,6.823,0,0,0-3.617.426,4.7,4.7,0,0,0-2.538,2.553,4.924,4.924,0,0,0,.152,3.6,8.389,8.389,0,0,0,2.219,2.933,5.714,5.714,0,0,0,2.264,1.337,2.72,2.72,0,0,0,2.492-.517" transform="translate(-37.088 -151.674)" fill="#ffbe9d"></path><path id="Path_8593" data-name="Path 8593" d="M98.267,188.474c.137,0-.35.79-1.52.547a2.31,2.31,0,0,1-1.429-1.109,5.364,5.364,0,0,1-.714-1.976,3.176,3.176,0,0,1,.41-2.158,2.128,2.128,0,0,1,1.52-1.018c1.125,0,1.52.684,1.4.714a1.882,1.882,0,0,0-2.416,2.386c.2,1.246.729,2.356,1.413,2.6S98.267,188.368,98.267,188.474Z" transform="translate(-36.278 -151.085)" fill="#eb996e"></path><path id="Path_8594" data-name="Path 8594" d="M135.435,166.678a8.207,8.207,0,0,1-3.176,9.316c-3.039,1.93-6.824,1.672-10.349,2.128s-7.6,2.356-7.933,5.881c-.243,2.143.942,4.422,0,6.4-1.018,2.31-4.255,2.857-5.5,5.045-1.991,3.526,2.584,7.72,1.717,11.671l-23.3-4.225a7.386,7.386,0,0,1,3.039-5.5,14.164,14.164,0,0,0-5.365,4.848l-6.9-2.34a17.522,17.522,0,0,1,10.851-9.939c3.723-1.2-1.52-7.842.258-11.307,2.052-3.921,9.285-2.021,11.337-5.942.745-1.429.486-3.161.9-4.726.927-3.556,5.091-5.273,8.769-5.334s7.355,1,11.018.638c2.006-.2,3.936-.836,5.927-1.155a9.119,9.119,0,0,1,5.9.669,4.468,4.468,0,0,1,2.28,5.091" transform="translate(-45.057 -161.917)" fill="#263238"></path><path id="Path_8595" data-name="Path 8595" d="M114.356,173.567c1.52,3.921,3.784,9.194,7.811,10.365,1.52-1.793,1.748-7.705,1.429-10.471a13.267,13.267,0,0,0-3.237-7.6,8.3,8.3,0,0,0-7.6-2.6" transform="translate(-26.82 -161.284)" fill="#263238"></path><path id="Path_8596" data-name="Path 8596" d="M86.948,203.073a1.611,1.611,0,0,1-.289-.638,4.559,4.559,0,0,1,0-2.036,8.723,8.723,0,0,1,1.17-3.039c.638-1.079,1.52-2.188,2.234-3.526a8.328,8.328,0,0,0,.805-4.787,14.164,14.164,0,0,1,.334-5.912,4.407,4.407,0,0,1,2.264-2.477,13.282,13.282,0,0,1,3.267-.851,5.532,5.532,0,0,0,2.9-1.2,6.4,6.4,0,0,0,1.52-2.872,26.592,26.592,0,0,1,1.094-3.389,10.2,10.2,0,0,1,1.976-2.918,9.361,9.361,0,0,1,5.9-2.887,17.9,17.9,0,0,1,5.866.821,22.129,22.129,0,0,0,4.924.866,6.7,6.7,0,0,0,3.86-.988,5.7,5.7,0,0,0,2.006-2.249,5.79,5.79,0,0,0,.5-2.568,1.52,1.52,0,0,1,.137.684,4.392,4.392,0,0,1-.35,2.006,6.079,6.079,0,0,1-2.052,2.508,7.173,7.173,0,0,1-4.1,1.155,20.609,20.609,0,0,1-5.076-.775,17.356,17.356,0,0,0-5.653-.729,8.83,8.83,0,0,0-5.41,2.69,9.925,9.925,0,0,0-1.808,2.705,27.075,27.075,0,0,0-1.049,3.3,7.021,7.021,0,0,1-1.763,3.222,6.383,6.383,0,0,1-3.3,1.4,12.4,12.4,0,0,0-3.039.76,3.6,3.6,0,0,0-2.021,2.1,13.571,13.571,0,0,0-.365,5.623,12.249,12.249,0,0,1-.122,2.705,7.325,7.325,0,0,1-.851,2.371c-.775,1.4-1.687,2.477-2.34,3.5a8.9,8.9,0,0,0-1.246,2.827,5.653,5.653,0,0,0,.076,2.614Z" transform="translate(-40.445 -161.656)" fill="#455a64"></path><path id="Path_8597" data-name="Path 8597" d="M129.226,165.38a3.161,3.161,0,0,1-.182.608,9.209,9.209,0,0,1-.805,1.641,12.325,12.325,0,0,1-4.924,4.559,11.975,11.975,0,0,1-4.559,1.261,33.109,33.109,0,0,1-5.3-.167,17.325,17.325,0,0,0-5.653.243,6.626,6.626,0,0,0-4.559,3.374c-.805,1.839-.562,4-.988,6.079a5.2,5.2,0,0,1-1.52,2.8,7.341,7.341,0,0,1-2.644,1.368,7.6,7.6,0,0,0-2.356,1.079,4.392,4.392,0,0,0-1.4,1.884,12.871,12.871,0,0,0-.669,4.392,10.9,10.9,0,0,1-1.413,6.489,3.784,3.784,0,0,1-1.383,1.216,1.733,1.733,0,0,1-.608.213,5.319,5.319,0,0,0,1.732-1.6,11.17,11.17,0,0,0,1.109-6.337,13.085,13.085,0,0,1,.623-4.559,5.076,5.076,0,0,1,1.52-2.2,9.513,9.513,0,0,1,2.538-1.216,6.626,6.626,0,0,0,2.371-1.216,4.559,4.559,0,0,0,1.216-2.4c.4-1.884.106-4.088,1.018-6.231a7.355,7.355,0,0,1,5.121-3.784,17.781,17.781,0,0,1,5.912-.228,34.464,34.464,0,0,0,5.2.243,11.412,11.412,0,0,0,4.3-1.109,12.659,12.659,0,0,0,4.909-4.164C128.861,166.171,129.15,165.35,129.226,165.38Z" transform="translate(-38.513 -160.118)" fill="#455a64"></path><path id="Path_8598" data-name="Path 8598" d="M124.637,181.923a23.235,23.235,0,0,0-.881-2.629,5.972,5.972,0,0,0-1.808-2.234,28.582,28.582,0,0,1-3.039-2.34,6.444,6.444,0,0,1-1.9-3.435c-.228-1.17-.274-2.219-.4-3.039a22.585,22.585,0,0,0-.623-2.705,4.392,4.392,0,0,1,1.185,2.614c.4,1.7.319,4.286,2.28,6.079.927.9,1.991,1.6,2.9,2.325a6.079,6.079,0,0,1,1.869,2.6,4.255,4.255,0,0,1,.41,2.766Z" transform="translate(-25.141 -160.035)" fill="#455a64"></path><path id="Path_8599" data-name="Path 8599" d="M108.879,177.843c-.213.4-1.413.167-2.887.091s-2.69,0-2.857-.441,1.14-1.246,2.948-1.14S109.107,177.478,108.879,177.843Z" transform="translate(-31.83 -154.42)" fill="#263238"></path><path id="Path_8600" data-name="Path 8600" d="M118.96,176.991c0,.441-1.14.775-2.523.76s-2.508-.4-2.508-.836,1.14-.775,2.523-.745S118.96,176.551,118.96,176.991Z" transform="translate(-26.212 -154.511)" fill="#263238"></path><rect id="Rectangle_1100" data-name="Rectangle 1100" width="66.169" height="66.169" rx="5.4" transform="matrix(0.32, -0.948, 0.948, 0.32, 85.186, 156.865)" fill="#455a64"></rect><path id="Path_8601" data-name="Path 8601" d="M168.791,266a39.213,39.213,0,0,0,.912-5.334,21.99,21.99,0,0,0-3.8-13.89,21.7,21.7,0,0,0-18.48-9.453,20.122,20.122,0,0,0-6.079,1.049,20.457,20.457,0,0,0-5.79,2.887,21.747,21.747,0,0,0-1.079,34.7,21.854,21.854,0,0,0,31.914-5.091,41.813,41.813,0,0,0,2.508-4.787,2.052,2.052,0,0,1-.091.35l-.35.988a10.474,10.474,0,0,1-.684,1.52,14.2,14.2,0,0,1-1.125,2.052,21.273,21.273,0,0,1-4.149,4.878,22.354,22.354,0,0,1-7.355,4.24,22.1,22.1,0,0,1-10.228,1.018,22.523,22.523,0,0,1-10.851-4.65,21.275,21.275,0,0,1-4.407-4.681,21,21,0,0,1-3.039-6.079,22.264,22.264,0,0,1,8.465-25.106,21.277,21.277,0,0,1,6.079-3.039,20.986,20.986,0,0,1,6.352-1.049,22.2,22.2,0,0,1,18.966,9.878,21.946,21.946,0,0,1,3.267,7.827,20.791,20.791,0,0,1,.365,6.4,14.876,14.876,0,0,1-.35,2.31,9.735,9.735,0,0,1-.41,1.656l-.319,1a1.109,1.109,0,0,1-.243.41Z" transform="translate(-20.177 -123.147)" fill="#fafafa"></path><path id="Path_8602" data-name="Path 8602" d="M157.984,256.71a15.41,15.41,0,0,1-4.711-1.185,14.708,14.708,0,0,1-4.453-1.915,15.107,15.107,0,0,1,4.711,1.17,14.726,14.726,0,0,1,4.453,1.93Z" transform="translate(-8.078 -114.263)" fill="#fafafa"></path><path id="Path_8603" data-name="Path 8603" d="M135,267.938a29.848,29.848,0,0,1,3.039-9.118,15.106,15.106,0,0,1-1.17,4.711A15.41,15.41,0,0,1,135,267.938Z" transform="translate(-15.261 -111.555)" fill="#fafafa"></path><path id="Path_8604" data-name="Path 8604" d="M142.27,246.474a15.105,15.105,0,0,1,1.17-4.711,14.513,14.513,0,0,1,1.93-4.453,15.638,15.638,0,0,1-1.17,4.711,15.2,15.2,0,0,1-1.93,4.453Z" transform="translate(-11.483 -122.734)" fill="#fafafa"></path><path id="Path_8605" data-name="Path 8605" d="M135.879,249.25a15.546,15.546,0,0,1-4.711-1.17,15.41,15.41,0,0,1-4.468-1.93,15.576,15.576,0,0,1,4.726,1.17,14.727,14.727,0,0,1,4.453,1.93Z" transform="translate(-19.575 -118.14)" fill="#fafafa"></path><path id="Path_8606" data-name="Path 8606" d="M154.167,246.21a41.634,41.634,0,0,1-7.188,4,41.881,41.881,0,0,1-7.6,3.3,43.142,43.142,0,0,1,7.188-4,42.929,42.929,0,0,1,7.6-3.3Z" transform="translate(-12.985 -118.109)" fill="#fafafa"></path><path id="Path_8607" data-name="Path 8607" d="M148.786,254.071a16.093,16.093,0,0,1-4.757-1.185,15.38,15.38,0,0,1-4.559-1.945,16.092,16.092,0,0,1,4.757,1.185,15.38,15.38,0,0,1,4.559,1.945Z" transform="translate(-12.938 -115.65)" fill="#fafafa"></path><path id="Path_8608" data-name="Path 8608" d="M139.85,281.824l5.061,2.766c4.818,2.128,7.416,3.48,9.377,3.039,2.629-.684,1.17-3.6,1.17-3.6s3.951.729,4.772-1.52a2.325,2.325,0,0,0-.927-2.538s3.571.5,4.818-.38c1.733-1.216.167-3.267.167-3.267,5.349-.213,6.352-2.842,5.577-3.6s-4.7-1.079-4.7-1.079c-3.039-.714-11.428-2.553-6.55-5.015s7.675-6.17,7.735-7.705a1.7,1.7,0,0,0-3.039-.866,19.469,19.469,0,0,1-4.346,3.359,13.01,13.01,0,0,1-4.088,1.687c-1.687.365-3.131.608-4.362.79l-6.9,1.809Z" transform="translate(-12.74 -112.295)" fill="#ffbe9d"></path><path id="Path_8609" data-name="Path 8609" d="M81.23,234.6c2.432,10.076,10.638,28.206,18.586,43.069s20.212,18.343,20.212,18.343l55.2,11.215,4.225-24.391s-47.9-12.629-51.868-13.678L101.746,218.83" transform="translate(-43.207 -132.339)" fill="#2274e5"></path><path id="Path_8610" data-name="Path 8610" d="M82.45,214.65a5.245,5.245,0,0,1,1-.426,12.508,12.508,0,0,1,3.039-.729,13.177,13.177,0,0,1,4.939.41,16.718,16.718,0,0,1,5.805,3.039,38.525,38.525,0,0,1,10.243,13.48c2.705,5.79,5.805,12.051,8.966,18.677l10.836,22.659-.228-.2,19.635,5.38,5.5,1.52,1.52.441a1.717,1.717,0,0,1,.486.182,2.474,2.474,0,0,1-.517-.076l-1.52-.35-5.562-1.368L126.841,272.2h-.152v-.152c-3.207-6.656-6.945-14.392-10.927-22.613-3.146-6.626-6.246-12.933-8.89-18.693a38.661,38.661,0,0,0-9.909-13.4,16.717,16.717,0,0,0-5.593-3.039,13.327,13.327,0,0,0-4.787-.532A26.912,26.912,0,0,0,82.45,214.65Z" transform="translate(-42.572 -135.15)" fill="#263238"></path></g></svg>